<svg width="52" height="52" viewBox="0 0 52 52" fill="none" xmlns="http://www.w3.org/2000/svg">
<path d="M43 29.3V6.2C43 5.61652 42.7695 5.05695 42.3593 4.64436C41.9491 4.23178 41.3927 4 40.8125 4H10.1875C9.60734 4 9.05094 4.23178 8.6407 4.64436C8.23047 5.05695 8 5.61652 8 6.2V45.8C8 46.3835 8.23047 46.9431 8.6407 47.3556C9.05094 47.7682 9.60734 48 10.1875 48H22.2188" stroke="#FFD028" stroke-width="3" stroke-linecap="round" stroke-linejoin="round"/>
<path d="M18 13H33" stroke="#FFD028" stroke-width="3" stroke-linecap="round" stroke-linejoin="round"/>
<path d="M18 22H33" stroke="#FFD028" stroke-width="3" stroke-linecap="round" stroke-linejoin="round"/>
<path d="M18 30H25" stroke="#FFD028" stroke-width="3" stroke-linecap="round" stroke-linejoin="round"/>
<path opacity="0.25" d="M34.5 45C35.6935 45 36.8381 44.4732 37.682 43.5355C38.5259 42.5979 39 41.3261 39 40C39 38.6739 38.5259 37.4021 37.682 36.4645C36.8381 35.5268 35.6935 35 34.5 35C33.3065 35 32.1619 35.5268 31.318 36.4645C30.4741 37.4021 30 38.6739 30 40C30 41.3261 30.4741 42.5979 31.318 43.5355C32.1619 44.4732 33.3065 45 34.5 45Z" fill="#FFD028"/>
<path d="M42 48L38.2277 43.9789M38.2277 43.9789C38.7478 43.4435 39.1626 42.8031 39.4479 42.0949C39.7333 41.3868 39.8835 40.6252 39.8898 39.8545C39.8961 39.0839 39.7583 38.3196 39.4845 37.6063C39.2108 36.893 38.8064 36.2449 38.2952 35.7C37.784 35.155 37.176 34.724 36.5068 34.4322C35.8377 34.1404 35.1207 33.9935 34.3977 34.0002C33.6747 34.0069 32.9602 34.167 32.2959 34.4712C31.6316 34.7754 31.0308 35.2176 30.5285 35.7719C29.5366 36.8666 28.9878 38.3327 29.0002 39.8545C29.0126 41.3763 29.5853 42.8321 30.5948 43.9082C31.6044 44.9843 32.97 45.5948 34.3977 45.608C35.8253 45.6212 37.2008 45.0362 38.2277 43.9789Z" stroke="#FFD028" stroke-width="3" stroke-linecap="round" stroke-linejoin="round"/>
</svg>
