<svg width="52" height="52" viewBox="0 0 52 52" fill="none" xmlns="http://www.w3.org/2000/svg">
<path opacity="0.25" d="M11 48C12.3261 48 13.5979 47.4732 14.5355 46.5355C15.4732 45.5979 16 44.3261 16 43C16 41.6739 15.4732 40.4021 14.5355 39.4645C13.5979 38.5268 12.3261 38 11 38C9.67392 38 8.40215 38.5268 7.46447 39.4645C6.52678 40.4021 6 41.6739 6 43C6 44.3261 6.52678 45.5979 7.46447 46.5355C8.40215 47.4732 9.67392 48 11 48Z" fill="#FFD028"/>
<path d="M11 48C12.3261 48 13.5979 47.4732 14.5355 46.5355C15.4732 45.5979 16 44.3261 16 43C16 41.6739 15.4732 40.4021 14.5355 39.4645C13.5979 38.5268 12.3261 38 11 38C9.67392 38 8.40215 38.5268 7.46447 39.4645C6.52678 40.4021 6 41.6739 6 43C6 44.3261 6.52678 45.5979 7.46447 46.5355C8.40215 47.4732 9.67392 48 11 48Z" stroke="#FFD028" stroke-width="3" stroke-linecap="round" stroke-linejoin="round"/>
<path opacity="0.25" d="M40 14C41.3261 14 42.5979 13.4732 43.5355 12.5355C44.4732 11.5979 45 10.3261 45 9C45 7.67392 44.4732 6.40215 43.5355 5.46447C42.5979 4.52678 41.3261 4 40 4C38.6739 4 37.4021 4.52678 36.4645 5.46447C35.5268 6.40215 35 7.67392 35 9C35 10.3261 35.5268 11.5979 36.4645 12.5355C37.4021 13.4732 38.6739 14 40 14Z" fill="#FFD028"/>
<path d="M40 14C41.3261 14 42.5979 13.4732 43.5355 12.5355C44.4732 11.5979 45 10.3261 45 9C45 7.67392 44.4732 6.40215 43.5355 5.46447C42.5979 4.52678 41.3261 4 40 4C38.6739 4 37.4021 4.52678 36.4645 5.46447C35.5268 6.40215 35 7.67392 35 9C35 10.3261 35.5268 11.5979 36.4645 12.5355C37.4021 13.4732 38.6739 14 40 14Z" stroke="#FFD028" stroke-width="3" stroke-linecap="round" stroke-linejoin="round"/>
<path d="M25.2667 43H36.3667C37.5004 43 38.6231 42.7801 39.6705 42.353C40.7179 41.9258 41.6697 41.2997 42.4714 40.5104C43.273 39.7211 43.909 38.7841 44.3428 37.7528C44.7767 36.7215 45 35.6162 45 34.5C45 33.3838 44.7767 32.2785 44.3428 31.2472C43.909 30.2159 43.273 29.2789 42.4714 28.4896C41.6697 27.7003 40.7179 27.0742 39.6705 26.647C38.6231 26.2199 37.5004 26 36.3667 26H16.6333C14.3436 26 12.1477 25.1045 10.5286 23.5104C8.90958 21.9163 8 19.7543 8 17.5C8 15.2457 8.90958 13.0837 10.5286 11.4896C12.1477 9.89553 14.3436 9 16.6333 9H25.2667" stroke="#FFD028" stroke-width="3" stroke-linecap="round" stroke-linejoin="round"/>
</svg>
