<svg width="52" height="52" viewBox="0 0 52 52" fill="none" xmlns="http://www.w3.org/2000/svg">
<circle opacity="0.25" cx="15" cy="29" r="6" fill="#FFD028"/>
<path opacity="0.25" d="M19.5 44C19.5 47.3137 16.2091 46 14 46C11.7909 46 9 46.8137 9 43.5C9 40.1863 11.7909 34 14 34C16.2091 34 19.5 40.6863 19.5 44Z" fill="#FFD028"/>
<path d="M32 5V13.8C32 14.3835 32.2318 14.9431 32.6444 15.3556C33.0569 15.7682 33.6165 16 34.2 16H43" stroke="#080518" stroke-width="3" stroke-linecap="round" stroke-linejoin="round"/>
<path d="M13 16.1111V9.44444C13 8.2657 13.4515 7.13524 14.2553 6.30175C15.059 5.46825 16.1491 5 17.2857 5H32.2857L43 16.1111V40.5556C43 41.7343 42.5485 42.8648 41.7447 43.6983C40.941 44.5317 39.8509 45 38.7143 45H28" stroke="#080518" stroke-width="3" stroke-linecap="round" stroke-linejoin="round"/>
<path d="M14.5 36C15.3536 36 16.1988 35.8319 16.9874 35.5052C17.7761 35.1786 18.4926 34.6998 19.0962 34.0962C19.6998 33.4926 20.1786 32.7761 20.5052 31.9874C20.8319 31.1988 21 30.3536 21 29.5C21 28.6464 20.8319 27.8012 20.5052 27.0126C20.1786 26.2239 19.6998 25.5074 19.0962 24.9038C18.4926 24.3002 17.7761 23.8214 16.9874 23.4948C16.1988 23.1681 15.3536 23 14.5 23C12.7761 23 11.1228 23.6848 9.90381 24.9038C8.68482 26.1228 8 27.7761 8 29.5C8 31.2239 8.68482 32.8772 9.90381 34.0962C11.1228 35.3152 12.7761 36 14.5 36Z" stroke="#080518" stroke-width="3" stroke-linecap="round" stroke-linejoin="round"/>
<path d="M11.25 36L8 47L14.5 43.7L21 47L17.75 36" stroke="#080518" stroke-width="3" stroke-linecap="round" stroke-linejoin="round"/>
</svg>
