<svg width="52" height="52" viewBox="0 0 52 52" fill="none" xmlns="http://www.w3.org/2000/svg">
<circle opacity="0.25" cx="26" cy="26" r="19" fill="#FFD028"/>
<path d="M15 44.1936C18.1 45.9933 21.8 46.9931 25.4 46.9931C28.9 47.0931 32.4 46.0933 35.4 44.4935L33.8 41.594C30.7 43.2937 27.2 43.9936 23.6 43.5937C19.9 43.1938 16.5 41.694 13.7 39.1944C10.9 36.6948 9 33.4953 8.2 29.8959C7.4 26.2965 7.7 22.4971 9.1 19.0977L9.6 19.2977L9.8 18.8977L11.8 19.9975L11.5 11.5989L4 15.5983L6.5 16.998L6.3 17.398C1.8 27.1964 5.6 38.7945 15 44.1936Z" fill="#FFD028"/>
<path d="M36 7.79954C32.8 5.99984 29.2 5 25.5 5C22 5 18.5 5.89985 15.5 7.49959L17.1 10.3991C20.2 8.6994 23.7 7.99951 27.3 8.39944C31 8.79938 34.4 10.2991 37.2 12.7987C40 15.2983 41.9 18.4978 42.7 22.0972C43.5 25.6966 43.2 29.496 41.8 32.8954L41.6 33.3954L39.2 31.9956L39.5 40.3942L47 36.3949L44.4 34.9951L44.6 34.5952C49.1 24.7968 45.4 13.1987 36 7.79954Z" fill="#FFD028"/>
<path d="M34.6 20.5975L28.5 26.6965L22.4 20.5975L14 28.9961L16.3 31.3957L22.4 25.2967L28.5 31.3957L36.9 22.9971L34.6 20.5975Z" fill="#FFD028"/>
</svg>
