<svg width="52" height="52" viewBox="0 0 52 52" fill="none" xmlns="http://www.w3.org/2000/svg">
<path opacity="0.25" d="M31 45.5V25L47.5 17.5L47 36.5L31 45.5Z" fill="#FFD028"/>
<path d="M48.2901 38.54C48.493 38.4388 48.6958 38.2365 48.7972 38.0341C48.8986 37.8318 49 37.5282 49 37.3259V15.5729C49 15.2694 48.8986 15.0671 48.7972 14.8647C48.6958 14.6624 48.493 14.46 48.2901 14.3588L31.6592 5.15176C31.2535 4.94941 30.7465 4.94941 30.3408 5.15176L13.7099 14.3588C13.507 14.46 13.3042 14.6624 13.2028 14.8647C13.1014 15.0671 13 15.2694 13 15.5729C13 15.8765 13.1014 16.0788 13.2028 16.2812C13.3042 16.4835 13.507 16.6859 13.7099 16.7871L29.5296 25.5894V44.1047L24.3577 41.2718L23.0394 43.8012L30.3408 47.8482C30.7465 48.0506 31.2535 48.0506 31.6592 47.8482L48.2901 38.54ZM46.1606 36.5165L32.369 44.2059V25.5894L46.1606 17.9V36.5165ZM17.3606 15.5729L31.0507 7.98471L44.7408 15.5729L31.0507 23.1612L17.3606 15.5729Z" fill="#FFD028"/>
<path d="M16 23H3V26H16V23Z" fill="#FFD028"/>
<path d="M19 37H6V40H19V37Z" fill="#FFD028"/>
<path d="M22 30H9V33H22V30Z" fill="#FFD028"/>
</svg>
