<svg width="52" height="52" viewBox="0 0 52 52" fill="none" xmlns="http://www.w3.org/2000/svg">
<rect opacity="0.25" x="19" y="4" width="13" height="10" fill="#FFD028"/>
<path d="M18 9H13C11.6739 9 10.4021 9.52678 9.46447 10.4645C8.52678 11.4021 8 12.6739 8 14V44C8 45.3261 8.52678 46.5979 9.46447 47.5355C10.4021 48.4732 11.6739 49 13 49H38C39.3261 49 40.5979 48.4732 41.5355 47.5355C42.4732 46.5979 43 45.3261 43 44V14C43 12.6739 42.4732 11.4021 41.5355 10.4645C40.5979 9.52678 39.3261 9 38 9H33" stroke="#FFD028" stroke-width="3" stroke-linecap="round" stroke-linejoin="round"/>
<path d="M23.5 26.5H33" stroke="#FFD028" stroke-width="3" stroke-linecap="round" stroke-linejoin="round"/>
<path d="M23.5 36.5H33" stroke="#FFD028" stroke-width="3" stroke-linecap="round" stroke-linejoin="round"/>
<path d="M18 26.5H18.0243" stroke="#FFD028" stroke-width="3" stroke-linecap="round" stroke-linejoin="round"/>
<path d="M18 36.5H18.0243" stroke="#FFD028" stroke-width="3" stroke-linecap="round" stroke-linejoin="round"/>
<path d="M19.4649 12.535C18.7659 11.8357 18.2898 10.9449 18.097 9.97516C17.9042 9.00539 18.0032 8.00023 18.3815 7.08673C18.7599 6.17323 19.4006 5.39241 20.2226 4.84299C21.0447 4.29357 22.0112 4.00021 22.9999 4H27.9999C29.326 4 30.5978 4.52678 31.5354 5.46447C32.4731 6.40215 32.9999 7.67392 32.9999 9C32.9999 10.3261 32.4731 11.5979 31.5354 12.5355C30.5978 13.4732 29.326 14 27.9999 14H22.9999C21.6739 13.9997 20.4024 13.4727 19.4649 12.535Z" stroke="#FFD028" stroke-width="3" stroke-linecap="round" stroke-linejoin="round"/>
</svg>
