<svg width="52" height="52" viewBox="0 0 52 52" fill="none" xmlns="http://www.w3.org/2000/svg">
<path opacity="0.25" d="M46.0874 12.2225C38.534 12.6215 31.13 10.024 25.5 5C19.87 10.024 12.466 12.6215 4.91256 12.2225C4.30467 14.563 3.99803 16.9708 4.00001 19.3881C4.00001 32.6713 13.1351 43.8354 25.5 47C37.8649 43.8354 47 32.6737 47 19.3881C47 16.9124 46.6823 14.5128 46.0874 12.2225Z" fill="#FFD028"/>
<path d="M18 26.5L23 31L33 22" stroke="#FFD028" stroke-width="3" stroke-linecap="round" stroke-linejoin="round"/>
<path d="M46.0874 12.2225C38.534 12.6215 31.13 10.024 25.5 5C19.87 10.024 12.466 12.6215 4.91256 12.2225C4.30467 14.563 3.99803 16.9708 4.00001 19.3881C4.00001 32.6713 13.1351 43.8354 25.5 47C37.8649 43.8354 47 32.6737 47 19.3881C47 16.9124 46.6823 14.5128 46.0874 12.2225Z" stroke="#FFD028" stroke-width="3" stroke-linecap="round" stroke-linejoin="round"/>
</svg>
