<svg width="32" height="32" viewBox="0 0 32 32" fill="none" xmlns="http://www.w3.org/2000/svg">
<path opacity="0.25" d="M16 29V16.5L28 10V22.5L16 29Z" fill="#FFD028"/>
<path d="M5.33333 9.97587L16 15.9993M16 15.9993L26.6667 9.97587M16 15.9993V28.0463M8 16.4384L12 18.6764M10.6667 12.653L21.3333 5.96023M14.7053 3.33668C15.1014 3.11587 15.547 3 16 3C16.453 3 16.8986 3.11587 17.2947 3.33668L27.3147 8.92377C27.5224 9.03975 27.6955 9.20936 27.816 9.41505C27.9365 9.62075 28 9.85504 28 10.0937V21.1166C27.9999 21.594 27.8726 22.0627 27.6314 22.4741C27.3902 22.8854 27.0437 23.2246 26.628 23.4564L17.2947 28.6633C16.8986 28.8841 16.453 29 16 29C15.547 29 15.1014 28.8841 14.7053 28.6633L5.372 23.4564C4.95647 23.2247 4.61018 22.8858 4.36895 22.4746C4.12773 22.0635 4.00035 21.5951 4 21.1179V10.0937C3.99999 9.85504 4.06352 9.62075 4.18402 9.41505C4.30452 9.20936 4.4776 9.03975 4.68533 8.92377L14.7053 3.33668Z" stroke="#FFD028" stroke-width="3" stroke-linecap="round"/>
</svg>
