<svg width="32" height="32" viewBox="0 0 32 32" fill="none" xmlns="http://www.w3.org/2000/svg">
<path opacity="0.25" d="M8 12L16 10L29 12V23L16 27L8 23V12Z" fill="#FFD028"/>
<path d="M2 12.8571V22.2857M16 5V9.71429M12.8889 5H19.1111M5.11111 17.5714H2M6.66667 12.8571H9.77778L12.8889 9.71429H18.1498C18.4386 9.71444 18.7216 9.79582 18.9673 9.9493C19.2129 10.1028 19.4113 10.3223 19.5404 10.5833L21.7929 15.131C21.922 15.392 22.1205 15.6115 22.3661 15.765C22.6117 15.9185 22.8947 15.9998 23.1836 16H25.3333V12.8571H28.4444C28.857 12.8571 29.2527 13.0227 29.5444 13.3174C29.8361 13.6121 30 14.0118 30 14.4286V23.8571C30 24.2739 29.8361 24.6736 29.5444 24.9683C29.2527 25.263 28.857 25.4286 28.4444 25.4286H25.3333V22.2857H20.6667V25.4286C20.6667 25.8453 20.5028 26.245 20.2111 26.5397C19.9193 26.8344 19.5237 27 19.1111 27H13.7211C13.4651 27 13.213 26.9362 12.9872 26.8142C12.7615 26.6923 12.569 26.5159 12.4269 26.3007L9.77778 22.2857H6.66667V12.8571Z" stroke="#FFD028" stroke-width="3" stroke-linecap="round" stroke-linejoin="round"/>
</svg>
