<svg width="32" height="32" viewBox="0 0 32 32" fill="none" xmlns="http://www.w3.org/2000/svg">
<g clip-path="url(#clip0_3546_2491)">
<path opacity="0.25" d="M11.5 19L8 21L8.5 14L11 11L12 7L15 6L19 7.5L20.6875 10L23 15.5V19.5L20.6875 21L17.5 21.5L15 19.5L11.5 19Z" fill="#FFD028"/>
<path d="M18.5 4.28947C18.5 6.77126 19.2605 9.192 20.675 11.2144L20.75 11.3212C22.2137 13.4133 23.0002 15.9176 23 18.4857V27.9474C23 28.757 22.6839 29.5334 22.1213 30.1059C21.5587 30.6784 20.7956 31 20 31H11C10.2044 31 9.44129 30.6784 8.87868 30.1059C8.31607 29.5334 8 28.757 8 27.9474V18.4842C8 15.9169 8.786 13.4138 10.25 11.3212L10.325 11.2144C11.7398 9.19222 12.5 6.7717 12.5 4.28947M8.0045 21.5414C8.60286 21.2782 9.11975 20.8546 9.5 20.3158C9.84076 19.8327 10.292 19.4413 10.8146 19.1754C11.3373 18.9095 11.9158 18.777 12.5 18.7895C13.0842 18.777 13.6627 18.9095 14.1854 19.1754C14.708 19.4413 15.1592 19.8327 15.5 20.3158C15.8408 20.7989 16.292 21.1903 16.8146 21.4562C17.3373 21.7221 17.9158 21.8546 18.5 21.8421C19.0842 21.8546 19.6627 21.7221 20.1854 21.4562C20.708 21.1903 21.1592 20.7989 21.5 20.3158C21.881 19.7755 22.4 19.3512 23 19.0871M12.5 6.57895H18.5V3.52632C18.5 3.12151 18.342 2.73329 18.0607 2.44705C17.7794 2.16081 17.3978 2 17 2H14C13.6022 2 13.2206 2.16081 12.9393 2.44705C12.658 2.73329 12.5 3.12151 12.5 3.52632V6.57895Z" stroke="#FFD028" stroke-width="3" stroke-linecap="round" stroke-linejoin="round"/>
</g>
<defs>
<clipPath id="clip0_3546_2491">
<rect width="32" height="32" fill="white"/>
</clipPath>
</defs>
</svg>
