<svg width="32" height="32" viewBox="0 0 32 32" fill="none" xmlns="http://www.w3.org/2000/svg">
<path d="M18.0656 21.9338H13.9354V18.9353H11.0453V14.6503H13.9354V11.6519H18.0656V14.6503H20.9557V18.9353H18.0656V21.9338Z" stroke="#FFD028" stroke-width="3" stroke-linecap="round" stroke-linejoin="round"/>
<path d="M7.32895 24.5017L5.0124 7.68176C4.96832 7.36159 5.0427 7.03597 5.22057 6.77036C5.39844 6.50476 5.66663 6.31885 5.97123 6.25001L15.4629 4.06125C15.817 3.97958 16.1841 3.97958 16.5382 4.06125L26.0298 6.25001C26.6616 6.39653 27.0791 7.01601 26.9874 7.68176L24.6721 24.5017C24.5854 25.1379 24.0527 29 16.0005 29C7.94834 29 7.41814 25.1379 7.32895 24.5017Z" stroke="#FFD028" stroke-width="3" stroke-linecap="round" stroke-linejoin="round"/>
</svg>
