<svg width="32" height="32" viewBox="0 0 32 32" fill="none" xmlns="http://www.w3.org/2000/svg">
<g clip-path="url(#clip0_3546_848)">
<path opacity="0.25" d="M12 7.5C10.8 9.5 10.5 13 10.5 14.5H21.5C21.1667 12.5 20.3 8.1 19.5 6.5C18.5 4.5 17.5 4 16 4C14.5 4 13.5 5 12 7.5Z" fill="#FFD028"/>
<path d="M6.71823 9.33333H4.98441C4.70408 9.33324 4.42693 9.39305 4.1712 9.50881C3.91547 9.62458 3.68698 9.79367 3.50079 10.0049C3.3146 10.2162 3.17494 10.4649 3.09101 10.7345C3.00707 11.0042 2.98078 11.2887 3.01386 11.5693L4.81248 26.824C4.85071 27.1483 5.00568 27.4472 5.24799 27.664C5.4903 27.8808 5.80311 28.0003 6.12706 28H26.2081C26.5368 27.9999 26.8537 27.8764 27.097 27.6535C27.3402 27.4307 27.4925 27.1245 27.524 26.7947L28.9907 11.5267C29.0175 11.249 28.9863 10.9688 28.8992 10.704C28.8122 10.4392 28.6711 10.1958 28.4852 9.9892C28.2992 9.78264 28.0725 9.61758 27.8195 9.50463C27.5665 9.39168 27.2929 9.33333 27.0162 9.33333H25.2334M3.41194 14.6667H28.5397M10.0245 19.3333H21.9272M11.347 24H20.6046M15.9758 4C13.0531 4 10.6858 8.616 10.6858 14.3107C10.6858 14.4307 10.6858 14.548 10.6884 14.6667H21.2633L21.2659 14.3107C21.2659 8.61733 18.8986 4 15.9758 4Z" stroke="#FFD028" stroke-width="3" stroke-linecap="round" stroke-linejoin="round"/>
</g>
<defs>
<clipPath id="clip0_3546_848">
<rect width="32" height="32" fill="white"/>
</clipPath>
</defs>
</svg>
