<svg width="32" height="32" viewBox="0 0 32 32" fill="none" xmlns="http://www.w3.org/2000/svg">
<path opacity="0.25" d="M5 8L4 23.5H8V27.5L14 28L23 27.5L24 24L28 23.5V9L20 4H12L5 8Z" fill="#FFD028"/>
<path d="M8.2 23.8H4V11.8C4 10 5.2 7.9 7 6.4C8.8 4.9 12.4 4 12.4 4M12.4 4H19.6M12.4 4C12.4 4.95478 12.7793 5.87045 13.4544 6.54558C14.1295 7.22072 15.0452 7.6 16 7.6C16.9548 7.6 17.8705 7.22072 18.5456 6.54558C19.2207 5.87045 19.6 4.95478 19.6 4M19.6 4C19.6 4 23.2 4.9 25 6.4C26.8 7.9 28 10 28 11.8V23.8H23.8M23.8 11.8V28H8.2V11.8" stroke="#FFD028" stroke-width="3" stroke-linecap="round" stroke-linejoin="round"/>
</svg>
