<svg width="52" height="52" viewBox="0 0 52 52" fill="none" xmlns="http://www.w3.org/2000/svg">
<path opacity="0.25" d="M4 42.5V27C10 27 15 30 21 30.5C27 31 37.5 29.5 41 29C43.8 28.6 47.1667 25.8333 48.5 24.5V38L45.5 45.5L9.5 46.5L4 42.5Z" fill="#FFD028"/>
<path d="M4 26.5C8.312 28.348 16.0348 31.009 26 31.009C35.9652 31.009 43.688 28.348 48 26.5M26 28V34.75M17.6552 14.5V7C17.6552 5.344 19.0146 4 20.6897 4H31.3103C32.9854 4 34.3448 5.344 34.3448 7V14.5M10.069 14.5H41.931C45.2828 14.5 48 17.1863 48 20.5V40C48 43.3137 45.2828 46 41.931 46H10.069C6.71717 46 4 43.3137 4 40V20.5C4 17.1863 6.71717 14.5 10.069 14.5Z" stroke="#FFD028" stroke-width="3" stroke-linecap="round" stroke-linejoin="round"/>
</svg>
