<svg width="44" height="35" viewBox="0 0 44 35" fill="none" xmlns="http://www.w3.org/2000/svg">
<path d="M32.1818 6.90909V5.63636C32.1818 4.67194 31.7987 3.74702 31.1168 3.06507C30.4348 2.38311 29.5099 2 28.5455 2H5.63636C4.67194 2 3.74702 2.38312 3.06507 3.06507L4.47928 4.47928L3.06507 3.06507C2.38312 3.74702 2 4.67194 2 5.63636V25.2727V27.2727H4H4.16458C4.61693 28.4324 5.34619 29.4742 6.29967 30.3015L7.61034 28.7908L6.29967 30.3015C7.70501 31.5208 9.50309 32.1921 11.3636 32.1921C13.2242 32.1921 15.0223 31.5208 16.4276 30.3015C17.3811 29.4742 18.1103 28.4324 18.5627 27.2727H23.8009C24.2533 28.4324 24.9825 29.4742 25.936 30.3015C27.3414 31.5208 29.1395 32.1921 31 32.1921C32.8605 32.1921 34.6586 31.5208 36.064 30.3015C37.0174 29.4742 37.7467 28.4324 38.1991 27.2727H40H42V25.2727V15.5462V14.8869L41.608 14.3569L36.6989 7.71977L36.0992 6.90909H35.0909H32.1818ZM33.1054 15.0909H32.1818V14.1818H32.4331L33.1054 15.0909Z" fill="white" stroke="#FFD028" stroke-width="4"/>
</svg>
