<svg width="52" height="52" viewBox="0 0 52 52" fill="none" xmlns="http://www.w3.org/2000/svg">
<path opacity="0.25" d="M16.5 47L5.5 18C5.5 13.2 11.8333 11.6667 15 11.5V37L18 41L35.5 42L20.5 49L16.5 47Z" fill="#FFD028"/>
<path d="M14.5588 11.3688L9.39272 13.2751C8.10757 13.7498 7.06092 14.7228 6.48301 15.9803C5.9051 17.2377 5.84326 18.6766 6.31109 19.9803L15.1296 44.5584C15.5975 45.8621 16.5568 46.9238 17.7964 47.51C19.036 48.0963 20.4543 48.159 21.7395 47.6844L36.0941 41.9335M22.7953 18.0763H35.6881M22.7953 23.3077H38.2644M22.7953 28.5391H30.531M46 36.3863V10.2291C45.9994 8.84208 45.4558 7.51203 44.4887 6.53144C43.5216 5.55085 42.2103 5 40.8429 5H20.2168C18.8494 5.00061 17.5383 5.55204 16.5716 6.53306C15.6049 7.51408 15.0619 8.84436 15.0619 10.2314V36.3817C15.0619 37.7688 15.6049 39.0991 16.5716 40.0801C17.5383 41.0611 18.8494 41.6125 20.2168 41.6131H40.8429C42.2099 41.6131 43.5209 41.0626 44.4879 40.0825C45.4549 39.1024 45.9988 37.7729 46 36.3863Z" stroke="#FFD028" stroke-width="3" stroke-linecap="round" stroke-linejoin="round"/>
</svg>
