<svg width="60" height="60" viewBox="0 0 60 60" fill="none" xmlns="http://www.w3.org/2000/svg">
<path d="M30 55.0001L43.75 41.2501C51.3439 33.6562 51.3439 21.344 43.75 13.7501C36.1561 6.15621 23.8439 6.15621 16.25 13.7501C8.65608 21.344 8.65609 33.6562 16.25 41.2501L30 55.0001Z" fill="#FFD028" stroke="white" stroke-width="2" stroke-linejoin="round"/>
<path d="M26 29L34 29C34.824 29 35.2944 29.9408 34.8 30.6L30.8 35.9333C30.4 36.4667 29.6 36.4667 29.2 35.9333L25.2 30.6C24.7056 29.9408 25.176 29 26 29Z" fill="#080518"/>
<path d="M26 23L34 23C34.824 23 35.2944 23.9408 34.8 24.6L30.8 29.9333C30.4 30.4667 29.6 30.4667 29.2 29.9333L25.2 24.6C24.7056 23.9408 25.176 23 26 23Z" fill="#080518"/>
</svg>
