<svg width="52" height="52" viewBox="0 0 52 52" fill="none" xmlns="http://www.w3.org/2000/svg">
<path d="M27.6847 5.1014C28.9662 4.86991 30.32 5.03632 31.5003 5.58483C33.1616 6.34065 34.4544 7.8458 34.94 9.59452C35.3047 10.8301 35.1369 12.1288 35.1772 13.3969C38.4313 13.3978 41.6844 13.3969 44.9384 13.3969C45.7147 13.3885 46.5163 13.3755 47.2503 13.6674C48.8178 14.2271 49.9363 15.7769 50 17.4233V35.9712C49.9381 37.6279 48.8056 39.1842 47.2269 39.7374C46.5303 40.0097 45.7719 40.0097 45.035 39.9986C44.3375 40.0005 43.6391 39.9949 42.9416 39.9995C42.9378 40.9459 42.9463 41.8933 42.9378 42.8397C42.9322 43.8818 42.5122 44.9129 41.7922 45.6705C40.9944 46.5203 39.8291 47.0148 38.6572 46.9953C28.3456 46.9963 18.0341 46.9953 7.7225 46.9953C6.70063 46.9721 5.63188 47.1115 4.66625 46.696C3.16156 46.1205 2.09375 44.633 2 43.0405V24.4842C2.03187 23.6094 2.33094 22.7429 2.87281 22.0484C3.635 21.0509 4.86687 20.4252 6.12969 20.4038C7.10563 20.3964 8.0825 20.4038 9.05844 20.4001C9.06219 19.4286 9.05281 18.458 9.06312 17.4875C9.08656 16.4025 9.55813 15.3371 10.3475 14.585C11.1369 13.819 12.2366 13.3885 13.3409 13.3987C16.3841 13.3941 19.4263 13.3997 22.4694 13.396C22.4759 12.6411 22.4628 11.8852 22.475 11.1303C22.5022 9.76465 23.0037 8.41569 23.8709 7.354C24.815 6.18354 26.1941 5.36171 27.6847 5.1014ZM27.2956 8.14515C26.2644 8.63044 25.5003 9.64007 25.3381 10.7631C25.2463 11.637 25.3156 12.5193 25.295 13.3969C27.6472 13.3969 30.0003 13.3978 32.3525 13.3969C32.3469 12.6401 32.3647 11.8834 32.3441 11.1275C32.2991 9.84274 31.4628 8.63044 30.2788 8.11168C29.3431 7.68682 28.2209 7.70077 27.2956 8.14515ZM12.6856 16.3374C12.1953 16.568 11.8634 17.0933 11.8822 17.6334C11.8822 23.6809 11.8822 29.7285 11.8822 35.776C11.8513 36.5467 12.5656 37.2421 13.3428 37.1975C24.1559 37.1956 34.9691 37.1984 45.7812 37.1956C46.4347 37.2021 47.0375 36.6917 47.1519 36.0577C47.1913 35.8104 47.1716 35.5585 47.1763 35.3102C47.1763 29.418 47.1763 23.5257 47.1763 17.6343C47.2091 16.885 46.5453 16.1915 45.7869 16.2008C42.2506 16.1961 38.7134 16.1989 35.1772 16.1999C35.1753 19.6564 35.1772 23.1138 35.1763 26.5713C35.18 27.1626 35.0956 27.7557 34.8969 28.3135C34.34 29.9377 32.8606 31.2094 31.1544 31.5097C29.7416 31.7831 28.2172 31.3972 27.1081 30.4862C25.9888 29.59 25.3044 28.1861 25.2978 26.7582C25.295 25.994 25.2847 25.2289 25.3025 24.4647C25.3578 23.5694 26.4097 22.926 27.2394 23.3044C27.7616 23.5127 28.1263 24.0519 28.1178 24.6106C28.1216 25.3237 28.1113 26.0377 28.1206 26.7517C28.1263 27.5921 28.7075 28.387 29.5044 28.6677C30.1794 28.9215 30.9809 28.7951 31.5453 28.347C32.0591 27.95 32.3647 27.3085 32.3525 26.6624C32.3534 23.1752 32.3516 19.6871 32.3534 16.1999C26.1744 16.198 19.9953 16.1989 13.8153 16.1989C13.4375 16.2036 13.0334 16.1552 12.6856 16.3374ZM4.82469 24.6032C4.82469 30.6833 4.82094 36.7624 4.82656 42.8415C4.82844 43.5992 5.54844 44.2472 6.30688 44.1998C17.0919 44.2007 27.8778 44.2017 38.6637 44.1989C39.4119 44.2342 40.1094 43.5909 40.1141 42.8462C40.1234 41.897 40.1141 40.9478 40.1169 39.9986C31.1619 39.9958 22.2069 40.0023 13.2528 39.9958C11.5803 39.9995 9.97813 38.9127 9.36781 37.3704C9.14844 36.8358 9.05188 36.2567 9.05938 35.6812C9.0575 31.52 9.06125 27.3587 9.0575 23.1966C8.11063 23.1975 7.16375 23.191 6.21688 23.1994C5.46969 23.1919 4.80312 23.8622 4.82469 24.6032Z" fill="#FFD028"/>
<path opacity="0.25" d="M4 23.0909L9.50725 22H11.1594L11.7101 37.8182L17.7681 38.9091L42 39.4545L40.3478 45.4545L12.2609 46L4 44.9091V23.0909Z" fill="#FFD028"/>
</svg>
