<svg width="132" height="46" viewBox="0 0 132 46" fill="none" xmlns="http://www.w3.org/2000/svg">
<g clip-path="url(#clip0_3506_6389)">
<path d="M18.8288 0.130245C26.1584 1.30305 32.6811 7.29738 31.4707 11.728C-0.335703 6.71098 2.35406 23.456 2.35406 23.456C-7.0601 0.846959 14.3235 -0.586469 18.8288 0.130245ZM29.0499 5.01693C29.0499 5.01693 45.2557 10.7506 25.486 35.7705C28.8482 39.0283 37.3209 36.2266 41.8935 30.4277C44.6505 26.9093 53.6612 7.68832 29.0499 5.01693ZM32.0087 37.1387C32.0087 37.1387 18.6271 47.7591 7.19563 18.1133C2.69028 19.2861 0.605714 27.8215 3.29547 34.6628C4.90933 38.898 16.8115 56.4249 32.0087 37.1387Z" fill="white"/>
<path d="M72.0856 24.2382H58.973L58.4351 26.8444H73.027L71.9511 31.7962H50.0968L53.1228 18.1135H60.3179L60.0489 19.2863H73.1615L72.0856 24.2382ZM54.5349 11.6631H76.322L75.2461 16.6149H53.459L54.5349 11.6631Z" fill="white"/>
<path d="M102.413 17.3316H79.4152L80.6256 11.6631H103.623L102.413 17.3316ZM91.3174 31.7962H84.1222L86.9465 18.8302H94.1416L91.3174 31.7962Z" fill="white"/>
<path d="M113.844 18.0484C113.777 18.2438 113.844 18.4393 113.844 18.6348C113.911 18.8302 114.046 18.9605 114.248 19.0908C114.718 19.2863 115.727 19.4166 117.408 19.4818C119.089 19.5469 120.703 19.6121 122.384 19.6121C123.729 19.6121 124.67 19.6773 125.208 19.6773C126.822 19.7424 128.167 20.1333 129.243 20.7197C130.319 21.3061 130.722 22.479 130.319 24.1078L129.579 27.3005C129.243 28.8642 128.369 30.037 126.957 30.6886C125.545 31.4053 124.132 31.7311 122.72 31.7311H109.944C108.397 31.7311 106.985 31.4053 105.842 30.6886C104.699 29.9719 104.295 28.7991 104.632 27.105L105.035 25.3458H112.23L112.096 25.9322C112.029 26.5186 112.298 26.7792 113.037 26.8444H121.241C122.115 26.7792 122.653 26.3883 122.72 25.6716C122.788 25.3458 122.788 25.0852 122.788 24.8897C122.788 24.6943 122.653 24.4336 122.384 24.3033C121.913 24.1078 120.905 23.9775 119.224 23.8472C117.543 23.7821 115.929 23.7169 114.248 23.7169C112.903 23.7169 111.961 23.6518 111.423 23.6518C109.809 23.5866 108.465 23.1957 107.389 22.6093C106.313 22.0229 105.909 20.8501 106.313 19.2212L106.582 17.918H113.844V18.0484ZM106.918 16.5498L106.985 16.224C107.321 14.5951 108.196 13.4223 109.541 12.7056C110.885 11.9889 112.298 11.6631 113.844 11.6631H126.486C128.033 11.6631 129.445 11.9889 130.588 12.7056C131.731 13.3571 132.135 14.5951 131.798 16.2891L131.395 18.0484H124.2L124.334 17.462C124.401 16.8756 124.132 16.6149 123.393 16.5498H106.918Z" fill="white"/>
<path d="M50.9037 35.8359H51.7779L51.1055 39.0286H53.19L53.0555 39.7453H50.0968L50.9037 35.8359Z" fill="white"/>
<path d="M55.4763 39.5498C55.2074 39.4194 54.9384 39.224 54.8039 38.9634C54.6694 38.7027 54.5349 38.4421 54.5349 38.0512C54.5349 37.5951 54.6694 37.2041 54.8711 36.8784C55.0729 36.5526 55.4091 36.2268 55.7453 36.0313C56.1488 35.8359 56.5522 35.7056 57.0229 35.7056C57.4264 35.7056 57.7626 35.7707 58.0988 35.901C58.3678 36.0313 58.6368 36.2268 58.7713 36.4874C58.9058 36.7481 59.0403 37.0087 59.0403 37.3996C59.0403 37.8557 58.9058 38.2466 58.704 38.5724C58.5023 38.8982 58.1661 39.224 57.8299 39.4194C57.4264 39.6149 57.0229 39.7452 56.5522 39.7452C56.1488 39.8104 55.8125 39.7452 55.4763 39.5498ZM57.4264 38.833C57.6281 38.7027 57.8299 38.5073 57.9644 38.2466C58.0988 37.986 58.1661 37.7254 58.1661 37.4648C58.1661 37.139 58.0316 36.9435 57.8299 36.7481C57.6281 36.5526 57.3592 36.4874 56.9557 36.4874C56.6195 36.4874 56.3505 36.5526 56.1488 36.6829C55.947 36.8132 55.7453 37.0087 55.6108 37.2693C55.4763 37.5299 55.4091 37.7906 55.4091 38.0512C55.4091 38.377 55.4763 38.5724 55.6781 38.7679C55.8798 38.9634 56.1488 39.0285 56.5522 39.0285C56.9557 39.0285 57.2247 38.9634 57.4264 38.833Z" fill="white"/>
<path d="M63.4783 37.7252H64.2853L63.949 39.3541C63.7473 39.4844 63.4783 39.6147 63.2094 39.6799C62.9404 39.745 62.6714 39.8102 62.3352 39.8102C61.9317 39.8102 61.5955 39.745 61.2593 39.6147C60.9903 39.4844 60.7213 39.2889 60.5868 39.0283C60.4524 38.7677 60.3179 38.5071 60.3179 38.1161C60.3179 37.66 60.4524 37.2691 60.6541 36.9433C60.8558 36.6175 61.192 36.2918 61.5283 36.0963C61.9317 35.9008 62.3352 35.7705 62.8731 35.7705C63.2766 35.7705 63.6128 35.8357 63.8818 35.966C64.1508 36.0963 64.4198 36.2266 64.5542 36.4221L63.8818 36.9433C63.7473 36.813 63.6128 36.6827 63.4111 36.6175C63.2094 36.5524 63.0076 36.4872 62.8059 36.4872C62.4697 36.4872 62.2007 36.5524 61.999 36.6827C61.73 36.813 61.5955 37.0085 61.461 37.2691C61.3265 37.5297 61.2593 37.7903 61.2593 38.051C61.2593 38.3767 61.3938 38.6374 61.5955 38.7677C61.7972 38.9631 62.1335 39.0283 62.4697 39.0283C62.7387 39.0283 62.9404 38.9631 63.1421 38.898L63.4783 37.7252Z" fill="white"/>
<path d="M66.7061 35.8359H67.6475L66.8406 39.7453H65.8992L66.7061 35.8359Z" fill="white"/>
<path d="M69.3286 39.6801C69.0596 39.615 68.7906 39.4847 68.6561 39.3544L68.9923 38.6376C69.1941 38.7679 69.3958 38.8983 69.5975 38.9634C69.8665 39.0286 70.0683 39.0937 70.3372 39.0937C70.6062 39.0937 70.8079 39.0286 70.9424 38.9634C71.0769 38.8983 71.1442 38.7679 71.1442 38.6376C71.1442 38.5073 71.0769 38.4422 70.9424 38.377C70.8079 38.3119 70.6062 38.2467 70.3372 38.1815C70.0683 38.1164 69.8665 38.0512 69.6648 37.9861C69.5303 37.9209 69.3286 37.7906 69.2613 37.6603C69.1268 37.53 69.0596 37.3345 69.0596 37.1391C69.0596 36.7481 69.1941 36.4223 69.5303 36.1617C69.8665 35.9011 70.3372 35.8359 70.8752 35.8359C71.1442 35.8359 71.4131 35.8359 71.6821 35.9011C71.9511 35.9662 72.1528 36.0314 72.2873 36.1617L71.9511 36.8133C71.6821 36.6178 71.2786 36.5527 70.8079 36.5527C70.539 36.5527 70.3372 36.6178 70.1355 36.683C70.001 36.7481 69.8665 36.8784 69.8665 37.0739C69.8665 37.2042 69.9338 37.2694 70.0683 37.3345C70.2027 37.3997 70.4045 37.4648 70.6734 37.53C70.9424 37.5951 71.1442 37.6603 71.3459 37.7255C71.4804 37.7906 71.6821 37.9209 71.7494 38.0512C71.8838 38.1815 71.9511 38.377 71.9511 38.5725C71.9511 38.8331 71.8838 39.0937 71.7494 39.2892C71.6149 39.4847 71.4131 39.615 71.0769 39.7453C70.8079 39.8756 70.4717 39.9408 70.0683 39.9408C69.9338 39.8104 69.6648 39.7453 69.3286 39.6801Z" fill="white"/>
<path d="M74.9771 36.5527H73.6322L73.7667 35.8359H77.3306L77.1961 36.5527H75.8513L75.1788 39.7453H74.3046L74.9771 36.5527Z" fill="white"/>
<path d="M78.8772 35.8359H79.7514L78.9445 39.7453H78.0703L78.8772 35.8359Z" fill="white"/>
<path d="M82.0377 39.5498C81.7688 39.4194 81.4998 39.224 81.3653 38.9634C81.2308 38.7027 81.0963 38.377 81.0963 38.0512C81.0963 37.5951 81.2308 37.2041 81.4325 36.8784C81.6343 36.5526 81.9705 36.2268 82.3067 36.0313C82.7102 35.8359 83.1136 35.7056 83.5843 35.7056C83.9206 35.7056 84.2568 35.7707 84.5258 35.901C84.7947 36.0313 84.9965 36.1617 85.131 36.4223L84.4585 36.9435C84.324 36.8132 84.1895 36.6829 84.0551 36.6177C83.8533 36.5526 83.7188 36.4874 83.4499 36.4874C83.1136 36.4874 82.8447 36.5526 82.6429 36.6829C82.374 36.8132 82.2395 37.0087 82.105 37.2693C81.9705 37.5299 81.9032 37.7906 81.9032 38.0512C81.9032 38.377 82.0377 38.6376 82.2395 38.7679C82.4412 38.9634 82.7102 39.0285 83.1136 39.0285C83.5171 39.0285 83.9206 38.8982 84.1895 38.5724L84.7275 39.0937C84.324 39.5498 83.7188 39.7452 82.9791 39.7452C82.7102 39.8104 82.374 39.7452 82.0377 39.5498Z" fill="white"/>
<path d="M86.6776 39.6801C86.4086 39.615 86.1396 39.4847 86.0051 39.3544L86.3413 38.6376C86.5431 38.7679 86.7448 38.8983 86.9465 38.9634C87.2155 39.0286 87.4172 39.0937 87.6862 39.0937C87.9552 39.0937 88.1569 39.0286 88.2914 38.9634C88.4259 38.8983 88.4932 38.7679 88.4932 38.6376C88.4932 38.5073 88.4259 38.4422 88.2914 38.377C88.1569 38.3119 87.9552 38.2467 87.6862 38.1815C87.4172 38.1164 87.2155 38.0512 87.0138 37.9861C86.8793 37.9209 86.6776 37.7906 86.6103 37.6603C86.4758 37.53 86.4086 37.3345 86.4086 37.1391C86.4086 36.7481 86.5431 36.4223 86.8793 36.1617C87.2155 35.9011 87.6862 35.8359 88.2242 35.8359C88.4932 35.8359 88.7621 35.8359 89.0311 35.9011C89.3001 35.9662 89.5018 36.0314 89.6363 36.1617L89.3001 36.8133C89.0311 36.6178 88.6276 36.5527 88.1569 36.5527C87.888 36.5527 87.6862 36.6178 87.4845 36.683C87.35 36.7481 87.2155 36.8784 87.2155 37.0739C87.2155 37.2042 87.2828 37.2694 87.4173 37.3345C87.5517 37.3997 87.7535 37.4648 88.0224 37.53C88.2914 37.5951 88.4932 37.6603 88.6949 37.7255C88.8294 37.7906 89.0311 37.9209 89.0984 38.0512C89.2328 38.1815 89.3001 38.377 89.3001 38.5725C89.3001 38.8331 89.2328 39.0937 89.0984 39.2892C88.9639 39.4847 88.7621 39.615 88.4259 39.7453C88.1569 39.8756 87.8207 39.9408 87.4173 39.9408C87.2828 39.8104 87.0138 39.7453 86.6776 39.6801Z" fill="white"/>
<path d="M94.8141 39.5498C94.5451 39.4194 94.2761 39.224 94.1417 38.9634C94.0072 38.7027 93.8727 38.377 93.8727 38.0512C93.8727 37.5951 94.0072 37.2041 94.2089 36.8784C94.4106 36.5526 94.7468 36.2268 95.0831 36.0313C95.4865 35.8359 95.89 35.7056 96.3607 35.7056C96.6969 35.7056 97.0331 35.7707 97.3021 35.901C97.5711 36.0313 97.7728 36.1617 97.9073 36.4223L97.2349 36.9435C97.1004 36.8132 96.9659 36.6829 96.8314 36.6177C96.6297 36.5526 96.4952 36.4874 96.2262 36.4874C95.89 36.4874 95.621 36.5526 95.4193 36.6829C95.1503 36.8132 95.0158 37.0087 94.8813 37.2693C94.7469 37.5299 94.6796 37.7906 94.6796 38.0512C94.6796 38.377 94.8141 38.6376 95.0158 38.7679C95.2176 38.9634 95.4865 39.0285 95.89 39.0285C96.2935 39.0285 96.6969 38.8982 96.9659 38.5724L97.5039 39.0937C97.1004 39.5498 96.4952 39.7452 95.7555 39.7452C95.4865 39.8104 95.1503 39.7452 94.8141 39.5498Z" fill="white"/>
<path d="M99.9246 39.5498C99.6556 39.4194 99.3866 39.224 99.2521 38.9634C99.1176 38.7027 98.9832 38.4421 98.9832 38.0512C98.9832 37.5951 99.1176 37.2041 99.3194 36.8784C99.5211 36.5526 99.8573 36.2268 100.194 36.0313C100.597 35.8359 101 35.7056 101.471 35.7056C101.875 35.7056 102.211 35.7707 102.547 35.901C102.816 36.0313 103.085 36.2268 103.22 36.4874C103.354 36.7481 103.489 37.0087 103.489 37.3996C103.489 37.8557 103.354 38.2466 103.152 38.5724C102.951 38.8982 102.614 39.224 102.278 39.4194C101.875 39.6149 101.471 39.7452 101 39.7452C100.597 39.8104 100.261 39.7452 99.9246 39.5498ZM101.875 38.833C102.076 38.7027 102.278 38.5073 102.413 38.2466C102.547 37.986 102.614 37.7254 102.614 37.4648C102.614 37.139 102.547 36.9435 102.345 36.7481C102.144 36.5526 101.875 36.4874 101.471 36.4874C101.135 36.4874 100.866 36.5526 100.664 36.6829C100.463 36.8132 100.261 37.0087 100.126 37.2693C99.9918 37.5299 99.9246 37.7906 99.9246 38.0512C99.9246 38.377 100.059 38.5724 100.194 38.7679C100.395 38.9634 100.664 39.0285 101.068 39.0285C101.404 39.0285 101.673 38.9634 101.875 38.833Z" fill="white"/>
<path d="M110.213 35.8359L109.406 39.7453H108.599L109.07 37.3345L107.456 39.2892H107.052L106.178 37.3345L105.708 39.7453H104.901L105.64 35.8359H106.38L107.456 38.3119L109.473 35.8359H110.213Z" fill="white"/>
<path d="M115.122 36.1616C115.391 36.357 115.525 36.6828 115.525 37.0737C115.525 37.3995 115.458 37.6602 115.256 37.9208C115.055 38.1814 114.853 38.3769 114.584 38.5072C114.315 38.6375 113.911 38.7026 113.508 38.7026H112.566L112.365 39.8103H111.491L112.298 35.9009H113.911C114.517 35.8358 114.853 35.9009 115.122 36.1616ZM114.382 37.7253C114.584 37.595 114.651 37.3995 114.651 37.0737C114.651 36.8783 114.584 36.748 114.449 36.6177C114.315 36.4873 114.113 36.4873 113.844 36.4873H113.037L112.768 37.9208H113.575C113.979 37.9208 114.18 37.8556 114.382 37.7253Z" fill="white"/>
<path d="M120.434 39.7453H119.56L119.358 38.8983H117.408L116.87 39.7453H115.929L118.551 35.8359H119.425L120.434 39.7453ZM119.224 38.2467L118.82 36.6178L117.812 38.2467H119.224Z" fill="white"/>
<path d="M126.419 35.8359L125.612 39.7453H124.872L123.326 37.2042L122.788 39.7453H121.913L122.72 35.8359H123.46L125.007 38.3119L125.545 35.8359H126.419Z" fill="white"/>
<path d="M129.915 38.377L129.646 39.7453H128.705L129.041 38.377L127.965 35.8359H128.84L129.579 37.5951L131.126 35.8359H132L129.915 38.377Z" fill="white"/>
</g>
<defs>
<clipPath id="clip0_3506_6389">
<rect width="132" height="46" fill="white"/>
</clipPath>
</defs>
</svg>
