<svg width="32" height="32" viewBox="0 0 32 32" fill="none" xmlns="http://www.w3.org/2000/svg">
<rect opacity="0.25" x="7" y="8" width="17" height="16" fill="#FFD028"/>
<path d="M12 6.66667V4M20 6.66667V4M12 28V25.3333M20 28V25.3333M6.66667 20H4M6.66667 12H4M28 20H25.3333M28 12H25.3333M17.3333 13.3333H14.6667C14.313 13.3333 13.9739 13.4738 13.7239 13.7239C13.4738 13.9739 13.3333 14.313 13.3333 14.6667V17.3333C13.3333 17.687 13.4738 18.0261 13.7239 18.2761C13.9739 18.5262 14.313 18.6667 14.6667 18.6667H17.3333C17.687 18.6667 18.0261 18.5262 18.2761 18.2761C18.5262 18.0261 18.6667 17.687 18.6667 17.3333V14.6667C18.6667 14.313 18.5262 13.9739 18.2761 13.7239C18.0261 13.4738 17.687 13.3333 17.3333 13.3333ZM9.33333 6.66667H22.6667C23.3739 6.66667 24.0522 6.94762 24.5523 7.44772C25.0524 7.94781 25.3333 8.62609 25.3333 9.33333V22.6667C25.3333 23.3739 25.0524 24.0522 24.5523 24.5523C24.0522 25.0524 23.3739 25.3333 22.6667 25.3333H9.33333C8.62609 25.3333 7.94781 25.0524 7.44772 24.5523C6.94762 24.0522 6.66667 23.3739 6.66667 22.6667V9.33333C6.66667 8.62609 6.94762 7.94781 7.44772 7.44772C7.94781 6.94762 8.62609 6.66667 9.33333 6.66667Z" stroke="#FFD028" stroke-width="3" stroke-linecap="round" stroke-linejoin="round"/>
</svg>
