<svg width="52" height="52" viewBox="0 0 52 52" fill="none" xmlns="http://www.w3.org/2000/svg">
<path opacity="0.25" d="M7 39V7.5L12.5 4L26 5L25 28.5L22 30V35L28.5 42L13 42.5L7 39Z" fill="#FFD028"/>
<path d="M16.5 13.4737V20.5789M35.5 27.6842V8.73684C35.5 7.48055 34.9996 6.27572 34.1088 5.38739C33.218 4.49906 32.0098 4 30.75 4H11.75C10.4902 4 9.28204 4.49906 8.39124 5.38739C7.50044 6.27572 7 7.48055 7 8.73684V37.1579C7 38.4142 7.50044 39.619 8.39124 40.5073C9.28204 41.3957 10.4902 41.8947 11.75 41.8947H28.375M45 49V32.1842C44.9995 30.0066 44.5689 27.8505 43.7327 25.8389C42.8965 23.8273 41.6711 21.9998 40.1265 20.4605L35.4952 15.8421V31.4429C35.4952 33.5508 32.9374 34.6095 31.4411 33.1174L28.3655 30.0526C27.178 28.8684 24.3256 28.1579 22.4233 30.0526C20.5233 31.9474 21.2358 34.7895 22.4233 35.9737L35.4929 49M26 4V28.8684" stroke="#FFD028" stroke-width="3" stroke-linecap="round" stroke-linejoin="round"/>
</svg>
