<svg width="52" height="52" viewBox="0 0 52 52" fill="none" xmlns="http://www.w3.org/2000/svg">
<path opacity="0.25" d="M3.5 46V19.5L9 18.5V9.5V5L11 3L15.5 4.5L20 10L20.5 32.5L20 39L18.5 42.5L15.5 46H3.5Z" fill="#FFD028"/>
<path d="M7.64844 3.4016C7.63344 2.66763 8.29063 1.99996 9.02938 2.00556C10.19 1.99996 11.3628 1.96354 12.5075 2.18765C15.2572 2.67416 17.7894 4.23642 19.4684 6.45608C20.9056 8.32836 21.7184 10.6629 21.7597 13.0189C21.7728 14.5036 21.7588 15.9884 21.7672 17.4731C30.2384 17.4731 38.7106 17.4722 47.1819 17.4731C47.9516 17.4685 48.71 17.7981 49.2331 18.3593C49.6672 18.8047 49.9072 19.4014 50 20.0084V44.4181C49.8913 45.8244 48.6209 47.0234 47.195 46.9982C33.0659 47.0001 18.9369 47.001 4.80781 46.9982C3.38844 47.0244 2.11625 45.8338 2 44.4331V20.0252C2.12188 18.7272 3.21781 17.5955 4.53219 17.489C5.57 17.4451 6.61062 17.4955 7.64937 17.4638C7.64562 12.777 7.64563 8.08931 7.64844 3.4016ZM10.4731 4.81258C10.4684 11.3763 10.4694 17.94 10.4731 24.5038C13.6747 24.4804 16.8322 25.9147 18.9416 28.3081C18.9397 23.2758 18.9434 18.2426 18.9397 13.2094C18.9416 10.8608 17.8934 8.5394 16.1328 6.97901C14.6019 5.59044 12.5422 4.81258 10.4731 4.81258ZM4.82563 20.2811C4.82188 28.2493 4.82469 36.2174 4.82375 44.1856C6.66406 44.1865 8.50344 44.1847 10.3438 44.1865C13.3353 44.2622 16.28 42.6065 17.7725 40.0255C18.7203 38.4315 19.1094 36.5209 18.8722 34.6851C18.6266 32.696 17.6328 30.8126 16.1337 29.4781C14.7069 28.1904 12.8244 27.4144 10.9006 27.3276C10.2453 27.2968 9.58812 27.3304 8.93281 27.307C8.22969 27.2566 7.62969 26.6114 7.64844 25.9063C7.64469 24.0313 7.64938 22.1562 7.64656 20.2811C6.70625 20.2802 5.76594 20.2792 4.82563 20.2811ZM21.7663 20.282C21.7606 25.4908 21.7709 30.6996 21.7606 35.9083C21.7391 39.0422 20.3066 42.1182 17.9459 44.1847C27.6894 44.1875 37.4328 44.1847 47.1753 44.1865C47.1772 36.2184 47.1753 28.2493 47.1763 20.2811C38.7059 20.2802 30.2356 20.2792 21.7663 20.282Z" fill="#FFD028"/>
<path d="M25.6681 32.9762C25.8369 32.937 26.0113 32.937 26.1828 32.936C29.8738 32.9388 33.5638 32.9351 37.2537 32.9379C38.0066 32.9043 38.7041 33.5579 38.7041 34.3106C38.7406 35.0511 38.0919 35.7421 37.3456 35.7477C33.5647 35.7533 29.7828 35.7505 26.0019 35.7496C25.3109 35.7655 24.6725 35.1986 24.5994 34.516C24.4953 33.8278 24.9978 33.1359 25.6681 32.9762Z" fill="#FFD028"/>
<path d="M25.5434 38.6388C25.8097 38.5407 26.0984 38.5669 26.3769 38.5641C28.1253 38.565 29.8747 38.5641 31.6241 38.5641C32.1884 38.5491 32.735 38.9115 32.9478 39.4316C33.3481 40.2767 32.6553 41.3552 31.7244 41.372C29.8156 41.3851 27.9069 41.3767 25.9981 41.3758C25.2978 41.387 24.6547 40.8062 24.5956 40.1114C24.5159 39.4773 24.9434 38.8433 25.5434 38.6388Z" fill="#FFD028"/>
</svg>
