<svg width="52" height="52" viewBox="0 0 52 52" fill="none" xmlns="http://www.w3.org/2000/svg">
<circle opacity="0.25" cx="36.5" cy="36.5" r="6.5" fill="#FFD028"/>
<path d="M7.90279 4H19.0071C20.1333 4.02521 21.2362 4.53838 21.9726 5.39096C22.6353 6.14001 22.9927 7.13934 22.9801 8.13777C22.9801 11.7417 22.9837 15.3456 22.9774 18.9494C22.9828 20.5538 21.9357 22.0924 20.443 22.6794C19.829 22.9378 19.1556 23.0008 18.4957 22.9792C15.0124 22.9765 11.5292 22.9801 8.04594 22.9774C6.94758 22.9774 5.86182 22.5038 5.11277 21.7026C4.42314 20.9832 4.02701 20.0019 4 19.0071V7.90639C4.04592 6.96108 4.41594 6.03107 5.05965 5.33334C5.77989 4.53118 6.82874 4.05222 7.90279 4ZM7.88388 6.7243C7.24197 6.80173 6.7072 7.39772 6.7135 8.04684C6.7081 11.531 6.7144 15.0142 6.7108 18.4984C6.7135 18.8189 6.68289 19.1574 6.82604 19.4554C7.04571 19.9632 7.59039 20.2981 8.14227 20.2711C11.7444 20.2693 15.3465 20.2756 18.9476 20.2675C19.6418 20.2639 20.2621 19.6481 20.2657 18.953C20.2711 15.3185 20.2693 11.684 20.2675 8.04954C20.2756 7.3113 19.5905 6.66398 18.854 6.7126C15.1979 6.7216 11.54 6.69729 7.88388 6.7243Z" fill="#FFD028"/>
<path d="M31.6416 4H42.7423C44.2593 4.05222 45.6907 5.02634 46.2939 6.4182C46.5478 6.98629 46.6541 7.61199 46.6442 8.2323C46.6424 11.8056 46.6487 15.3798 46.6415 18.953C46.6442 20.5385 45.6232 22.0609 44.1557 22.6596C43.6354 22.8774 43.0709 22.9837 42.5082 22.9783C38.9052 22.9774 35.3022 22.9801 31.7001 22.9765C30.0472 22.9882 28.468 21.8736 27.9162 20.3179C27.7289 19.8218 27.6569 19.2898 27.6641 18.7613C27.6659 15.1898 27.6614 11.6192 27.6659 8.04774C27.6668 7.0331 28.0656 6.02747 28.7642 5.29013C29.498 4.49426 30.5612 4.02791 31.6416 4ZM31.5345 6.7279C30.8988 6.80803 30.3749 7.39862 30.3785 8.04054C30.3722 11.6462 30.3767 15.251 30.3758 18.8558C30.329 19.586 30.9691 20.2666 31.6992 20.2675C35.3022 20.2765 38.9061 20.2693 42.5091 20.2711C43.2392 20.3152 43.9289 19.685 43.9298 18.9494C43.9352 15.3167 43.9334 11.6831 43.9307 8.05044C43.9397 7.30949 43.2482 6.65768 42.5091 6.7135C38.8512 6.7225 35.1915 6.69369 31.5345 6.7279Z" fill="#FFD028"/>
<path d="M5.15508 28.8957C5.90323 28.1187 6.97188 27.6641 8.05134 27.6668C11.6822 27.6641 15.3131 27.6641 18.944 27.6668C20.6078 27.6533 22.195 28.7831 22.7379 30.3542C23.0692 31.2167 22.963 32.153 22.9801 33.0551C22.9765 36.2682 22.9873 39.4814 22.9747 42.6936C22.9504 44.3205 21.843 45.8582 20.3071 46.3948C19.5301 46.7045 18.6821 46.6388 17.8637 46.6433C14.8342 46.6433 11.8038 46.6433 8.77428 46.6433C8.07025 46.6559 7.34821 46.655 6.68199 46.3984C5.13257 45.8582 4.01891 44.3052 4 42.6648V31.6398C4.02521 30.6225 4.43935 29.6204 5.15508 28.8957ZM7.89559 30.3884C7.21496 30.4595 6.66938 31.1122 6.7117 31.7937C6.7135 35.3985 6.7081 39.0042 6.7144 42.609C6.7108 43.3094 7.34461 43.9361 8.04324 43.9298C11.6795 43.9307 15.3149 43.9316 18.9503 43.9289C19.649 43.928 20.2702 43.2987 20.2666 42.6018C20.272 39.1213 20.2675 35.6398 20.2693 32.1593C20.2675 31.8226 20.2999 31.4651 20.1378 31.1554C19.9128 30.6738 19.3906 30.3452 18.8558 30.3776C15.2024 30.3857 11.5481 30.365 7.89559 30.3884Z" fill="#FFD028"/>
<path d="M33.679 28.1178C35.5876 27.4777 37.7159 27.5164 39.5975 28.234C41.5692 28.9722 43.2464 30.4514 44.2395 32.306C45.0713 33.8428 45.4197 35.6308 45.2424 37.3675C45.092 38.9169 44.5033 40.4132 43.593 41.6736C44.93 43.016 46.2732 44.352 47.6102 45.6943C47.8199 45.8987 47.9253 46.1796 48 46.4569V46.8098C47.91 47.4103 47.4301 47.8902 46.8359 48H46.4812C46.1922 47.9334 45.9023 47.8253 45.6925 47.6084C44.352 46.2714 43.016 44.93 41.6754 43.593C39.936 44.8607 37.7294 45.472 35.5858 45.2424C33.6682 45.0551 31.8235 44.2089 30.4271 42.8809C29.1028 41.6376 28.179 39.9739 27.8324 38.1913C27.4363 36.2061 27.746 34.0859 28.712 32.3051C29.7582 30.3479 31.5723 28.8165 33.679 28.1178ZM35.2491 30.4982C33.4476 30.8583 31.8478 32.0836 31.0285 33.7276C30.3614 35.0348 30.2011 36.586 30.5693 38.0058C30.916 39.3625 31.7523 40.587 32.8867 41.4071C34.013 42.2363 35.4336 42.6513 36.8291 42.5649C38.1823 42.4947 39.5012 41.9455 40.5149 41.047C41.6286 40.0666 42.3695 38.6666 42.5334 37.1892C42.6711 36.0332 42.4713 34.8377 41.9554 33.7933C41.3099 32.4663 40.1638 31.3913 38.7981 30.8331C37.6826 30.3713 36.4303 30.2605 35.2491 30.4982Z" fill="#FFD028"/>
</svg>
