<svg width="24" height="24" viewBox="0 0 24 24" fill="none" xmlns="http://www.w3.org/2000/svg">
<rect width="24" height="24" rx="12" fill="#62569D"/>
<path d="M9.55364 8.69735C9.43813 8.68053 9.32033 8.70364 9.21983 8.76284H9.21126C8.97795 8.89916 8.76776 9.07145 8.58853 9.27332C8.43958 9.44497 8.35878 9.61866 8.33756 9.78584C8.32491 9.88549 8.33348 9.98515 8.36327 10.0803L8.37388 10.0868C8.5416 10.5782 8.76074 11.0509 9.02844 11.4959C9.37328 12.121 9.79766 12.6992 10.291 13.216L10.3057 13.2372L10.329 13.2543L10.3437 13.2714L10.3608 13.286C10.8812 13.7792 11.4627 14.2042 12.0911 14.5506C12.8093 14.9403 13.2452 15.1245 13.5067 15.201V15.2051C13.5835 15.2283 13.6532 15.2388 13.7234 15.2388C13.9464 15.2226 14.1574 15.1324 14.3229 14.9826C14.5245 14.8039 14.6954 14.5935 14.8289 14.3598V14.3558C14.9542 14.1207 14.9118 13.8982 14.731 13.7477C14.3689 13.4322 13.9774 13.152 13.5618 12.911C13.2835 12.7605 13.0007 12.8516 12.886 13.0041L12.6416 13.3112C12.5163 13.4638 12.2886 13.4426 12.2886 13.4426L12.2821 13.4467C10.5841 13.0143 10.1311 11.3006 10.1311 11.3006C10.1311 11.3006 10.1099 11.0675 10.267 10.9488L10.573 10.7031C10.7195 10.5843 10.8216 10.3028 10.6644 10.025C10.4242 9.61018 10.1438 9.21985 9.82706 8.85965C9.75782 8.77473 9.66068 8.71695 9.55283 8.69654L9.55364 8.69735Z" fill="white"/>
<path d="M12.4231 7.95244C12.2514 7.95244 12.1122 8.09119 12.1122 8.26235C12.1122 8.43351 12.2514 8.57226 12.4231 8.57226C13.2094 8.57226 13.8628 8.82845 14.379 9.319C14.6447 9.58762 14.8515 9.90559 14.9873 10.2536C15.1236 10.6028 15.1856 10.9753 15.1697 11.3483C15.1624 11.5193 15.2956 11.6638 15.4671 11.6711C15.6387 11.6784 15.7837 11.5456 15.791 11.3746C15.8106 10.9157 15.7343 10.4578 15.5668 10.0288C15.3995 9.59992 15.1447 9.20905 14.8181 8.87999L14.8119 8.87403C14.1714 8.26349 13.3596 7.95244 12.4231 7.95244Z" fill="white"/>
<path d="M12.402 8.97163C12.2303 8.97163 12.0911 9.11038 12.0911 9.28154C12.0911 9.4527 12.2303 9.59145 12.402 9.59145H12.4121C12.9795 9.63131 13.3924 9.81982 13.6818 10.1293C13.9781 10.448 14.1316 10.8438 14.1203 11.3336C14.1163 11.5047 14.2522 11.6466 14.4239 11.6506C14.5956 11.6545 14.738 11.519 14.7419 11.3479C14.7569 10.7048 14.5494 10.1503 14.1376 9.70756L14.137 9.70698C13.7163 9.25693 13.139 9.01885 12.4436 8.97233L12.4332 8.97163H12.402Z" fill="white"/>
<path d="M12.3902 10.0094C12.2187 10.0004 12.0724 10.1317 12.0634 10.3026C12.0544 10.4735 12.186 10.6194 12.3575 10.6284C12.6179 10.6421 12.7838 10.7199 12.8881 10.8249C12.9929 10.9304 13.0713 11.0993 13.0856 11.3641C13.0949 11.535 13.2413 11.6661 13.4128 11.6569C13.5843 11.6477 13.7158 11.5017 13.7066 11.3308C13.6865 10.9589 13.5697 10.6301 13.33 10.3888C13.0898 10.147 12.7618 10.0289 12.3902 10.0094Z" fill="white"/>
<path fill-rule="evenodd" clip-rule="evenodd" d="M8.99523 6.33066C10.974 5.88978 13.026 5.88978 15.0048 6.33066L15.2156 6.37763C16.3951 6.64043 17.326 7.54216 17.6233 8.70983C18.1256 10.6826 18.1256 12.7492 17.6233 14.722C17.326 15.8897 16.3951 16.7914 15.2156 17.0542L15.0048 17.1012C13.7618 17.3781 12.49 17.4811 11.2255 17.4101L9.57564 18.8816C9.44895 18.9945 9.27063 19.0299 9.11022 18.9738C8.94982 18.9177 8.83275 18.779 8.80468 18.6119L8.53181 16.9871C7.4732 16.6592 6.65243 15.805 6.3767 14.722C5.87443 12.7492 5.87443 10.6826 6.3767 8.70983C6.67399 7.54216 7.60492 6.64043 8.78441 6.37763L8.99523 6.33066ZM14.8013 7.238C12.9565 6.82698 11.0435 6.82698 9.19871 7.238L8.98789 7.28497C8.15162 7.4713 7.49158 8.11063 7.28081 8.93852C6.81675 10.7612 6.81675 12.6706 7.28081 14.4933C7.49158 15.3212 8.15162 15.9606 8.98789 16.1469L9.04358 16.1593C9.22882 16.2006 9.37049 16.3496 9.40182 16.5362L9.58482 17.6258L10.7491 16.5874C10.8431 16.5036 10.9672 16.4613 11.093 16.4702C12.3327 16.5576 13.5819 16.4655 14.8013 16.1939L15.0121 16.1469C15.8484 15.9606 16.5084 15.3212 16.7192 14.4933C17.1833 12.6706 17.1833 10.7612 16.7192 8.93852C16.5084 8.11063 15.8484 7.4713 15.0121 7.28497L14.8013 7.238Z" fill="white"/>
</svg>
