<svg width="24" height="24" viewBox="0 0 24 24" fill="none" xmlns="http://www.w3.org/2000/svg">
<rect width="24" height="24" rx="12" fill="#0077FF"/>
<path fill-rule="evenodd" clip-rule="evenodd" d="M11.1531 15.456H11.7897C11.7897 15.456 11.9807 15.419 12.0762 15.308C12.1717 15.197 12.1717 14.975 12.1717 14.975C12.1717 14.975 12.1717 14.013 12.5536 13.865C12.9356 13.717 13.4449 14.827 13.9542 15.234C14.3362 15.567 14.6226 15.493 14.6226 15.493L16.0232 15.456C16.0232 15.456 16.7553 15.419 16.4052 14.716C16.3733 14.679 16.2142 14.235 15.3547 13.31C14.4635 12.348 14.5908 12.533 15.6412 10.868C16.2778 9.869 16.5325 9.277 16.4688 8.981C16.4052 8.722 15.9277 8.796 15.9277 8.796H14.3362C14.3362 8.796 14.2088 8.759 14.1452 8.833C14.0497 8.907 14.0178 9.018 14.0178 9.018C14.0178 9.018 13.7632 9.795 13.4449 10.461C12.7446 11.83 12.4581 11.904 12.3626 11.83C12.108 11.645 12.1717 11.016 12.1717 10.609C12.1717 9.277 12.3626 8.722 11.8215 8.574C11.6624 8.537 11.535 8.5 11.0894 8.5C10.5164 8.5 10.039 8.5 9.78434 8.648C9.59335 8.759 9.46603 8.981 9.56152 8.981C9.65702 8.981 9.91166 9.055 10.039 9.24C10.1663 9.573 10.1663 10.128 10.1663 10.128C10.1663 10.128 10.2618 11.719 9.94349 11.904C9.72068 12.052 9.4342 11.756 8.79758 10.498C8.47927 9.869 8.22463 9.129 8.22463 9.129C8.22463 9.129 8.19279 8.981 8.0973 8.907C8.00181 8.833 7.84265 8.796 7.84265 8.796H6.3466C6.3466 8.796 6.12379 8.796 6.02829 8.907C5.96463 9.018 6.02829 9.203 6.02829 9.203C6.02829 9.203 7.20604 12.385 8.54293 14.013C9.78434 15.567 11.1531 15.456 11.1531 15.456Z" fill="white"/>
</svg>
