<svg width="24" height="24" viewBox="0 0 24 24" fill="none" xmlns="http://www.w3.org/2000/svg">
<rect width="24" height="24" rx="12" fill="#1DC53F"/>
<path d="M14.291 12.9921C14.1669 12.9301 13.555 12.63 13.4409 12.589C13.3269 12.5475 13.244 12.527 13.1611 12.651C13.0782 12.7746 12.8395 13.0541 12.7667 13.1366C12.6943 13.2192 12.6215 13.2292 12.4974 13.1671C12.1307 13.0218 11.7922 12.814 11.4971 12.553C11.2249 12.3026 10.9916 12.0134 10.8048 11.6948C10.7324 11.5708 10.7972 11.5038 10.8595 11.4423C10.9153 11.3867 10.9841 11.2977 11.0459 11.2252C11.0971 11.1626 11.1391 11.0931 11.1705 11.0187C11.1871 10.9845 11.1948 10.9467 11.1929 10.9088C11.1911 10.8709 11.1798 10.8341 11.16 10.8016C11.1288 10.7396 10.8801 10.13 10.7766 9.88191C10.6756 9.64086 10.5731 9.67336 10.4963 9.66936C10.4239 9.66586 10.341 9.66486 10.2581 9.66486C10.1951 9.66661 10.1331 9.68134 10.076 9.7081C10.0189 9.73487 9.96805 9.7731 9.92655 9.8204C9.78588 9.953 9.67451 10.1133 9.59951 10.2911C9.52452 10.4689 9.48755 10.6603 9.49096 10.8531C9.5313 11.3204 9.70784 11.7657 9.99889 12.1344C10.5324 12.9306 11.2648 13.575 12.1241 14.0043C12.3559 14.1035 12.5927 14.1906 12.8335 14.2654C13.0874 14.3421 13.3558 14.3587 13.6173 14.3139C13.7904 14.279 13.9545 14.2087 14.099 14.1074C14.2435 14.0062 14.3653 13.8763 14.4568 13.7258C14.5384 13.5407 14.5636 13.3358 14.5291 13.1366C14.4985 13.0846 14.4156 13.0541 14.291 12.9921ZM15.543 8.45159C14.6889 7.60158 13.5535 7.08949 12.3484 7.01067C11.1432 6.93185 9.95031 7.29167 8.9918 8.02313C8.03329 8.7546 7.37448 9.80787 7.13801 10.9868C6.90154 12.1658 7.10354 13.3902 7.70639 14.4319L7 17L9.63967 16.3113C10.3698 16.7071 11.1878 16.9144 12.0191 16.9145H12.0211C13.0059 16.914 13.9684 16.6229 14.7871 16.0781C15.6058 15.5333 16.2439 14.7592 16.6207 13.8536C16.9976 12.948 17.0964 11.9514 16.9046 10.99C16.7128 10.0285 16.2389 9.14514 15.543 8.45159ZM14.2202 15.4477C13.5611 15.8589 12.799 16.0771 12.0211 16.0773H12.0191C11.278 16.0773 10.5505 15.8788 9.91298 15.5027L9.76176 15.4136L8.19524 15.8227L8.61324 14.3024L8.51527 14.1464C8.08046 13.4561 7.86102 12.653 7.88471 11.8387C7.90841 11.0243 8.17416 10.2352 8.64837 9.57118C9.12258 8.90715 9.78396 8.398 10.5489 8.10812C11.3138 7.81824 12.1478 7.76065 12.9456 7.94263C13.7434 8.1246 14.4691 8.53797 15.0308 9.13047C15.5926 9.72296 15.9653 10.468 16.1017 11.2713C16.2381 12.0746 16.1322 12.9002 15.7973 13.6435C15.4624 14.3869 14.9135 15.0148 14.2202 15.4477Z" fill="#080518"/>
</svg>
