<svg width="52" height="52" viewBox="0 0 52 52" fill="none" xmlns="http://www.w3.org/2000/svg">
<path opacity="0.25" d="M32 33H10L2.5 21L11 9.5L28 8.5L35.5 11.5L36 28L32 33Z" fill="#FFD028"/>
<path d="M16.9673 41.4C17.8313 43.511 19.92 45 22.3636 45H40.4175C41.4036 45 42.3229 44.5046 42.8611 43.6838L50 32.76L42.7767 21.7094M29.6364 33.48H11.5825C10.5964 33.48 9.67709 32.9846 9.13891 32.1638L2 21.24L9.13891 10.3162C9.67418 9.49536 10.5935 9 11.5825 9H29.6364C32.8509 9 35.4545 11.5776 35.4545 14.76V27.72C35.4545 30.9024 32.8509 33.48 29.6364 33.48Z" stroke="#FFD028" stroke-width="3" stroke-linecap="round" stroke-linejoin="round"/>
</svg>
