<svg width="52" height="52" viewBox="0 0 52 52" fill="none" xmlns="http://www.w3.org/2000/svg">
<rect opacity="0.25" x="32" y="5" width="16" height="15" fill="#FFD028"/>
<path d="M39.728 39.75V48M39.728 39.75H31.478M39.728 39.75H47.978M39.728 39.75V31.5M4 18.85V5.65C4 5.21239 4.17384 4.79271 4.48327 4.48327C4.79271 4.17384 5.21239 4 5.65 4H18.85C19.2876 4 19.7073 4.17384 20.0167 4.48327C20.3262 4.79271 20.5 5.21239 20.5 5.65V18.85C20.5 19.2876 20.3262 19.7073 20.0167 20.0167C19.7073 20.3262 19.2876 20.5 18.85 20.5H5.65C5.21239 20.5 4.79271 20.3262 4.48327 20.0167C4.17384 19.7073 4 19.2876 4 18.85ZM4 46.35V33.15C4 32.7124 4.17384 32.2927 4.48327 31.9833C4.79271 31.6738 5.21239 31.5 5.65 31.5H18.85C19.2876 31.5 19.7073 31.6738 20.0167 31.9833C20.3262 32.2927 20.5 32.7124 20.5 33.15V46.35C20.5 46.7876 20.3262 47.2073 20.0167 47.5167C19.7073 47.8262 19.2876 48 18.85 48H5.65C5.21239 48 4.79271 47.8262 4.48327 47.5167C4.17384 47.2073 4 46.7876 4 46.35ZM31.5 18.85V5.65C31.5 5.21239 31.6738 4.79271 31.9833 4.48327C32.2927 4.17384 32.7124 4 33.15 4H46.35C46.7876 4 47.2073 4.17384 47.5167 4.48327C47.8262 4.79271 48 5.21239 48 5.65V18.85C48 19.2876 47.8262 19.7073 47.5167 20.0167C47.2073 20.3262 46.7876 20.5 46.35 20.5H33.15C32.7124 20.5 32.2927 20.3262 31.9833 20.0167C31.6738 19.7073 31.5 19.2876 31.5 18.85Z" stroke="#FFD028" stroke-width="3" stroke-linecap="round" stroke-linejoin="round"/>
</svg>
