<svg width="52" height="52" viewBox="0 0 52 52" fill="none" xmlns="http://www.w3.org/2000/svg">
<path opacity="0.25" d="M39.5 42C41.2239 42 42.8772 41.3152 44.0962 40.0962C45.3152 38.8772 46 37.2239 46 35.5C46 33.7761 45.3152 32.1228 44.0962 30.9038C42.8772 29.6848 41.2239 29 39.5 29C37.7761 29 36.1228 29.6848 34.9038 30.9038C33.6848 32.1228 33 33.7761 33 35.5C33 37.2239 33.6848 38.8772 34.9038 40.0962C36.1228 41.3152 37.7761 42 39.5 42Z" fill="#FFD028"/>
<path d="M46.5263 23.5V18.5C46.5263 15.1848 45.2232 12.0054 42.9037 9.66117C40.5842 7.31696 37.4382 6 34.1579 6H14.3684C11.0881 6 7.94216 7.31696 5.62263 9.66117C3.3031 12.0054 2 15.1848 2 18.5C2 21.8152 3.3031 24.9946 5.62263 27.3388C7.94216 29.683 11.0881 31 14.3684 31H24.2632M44.3594 41.2975L49 46M44.3594 41.2975C45.0567 40.6022 45.6109 39.7743 45.99 38.8614C46.3692 37.9486 46.5658 36.969 46.5684 35.979C46.5711 34.989 46.3798 34.0083 46.0056 33.0934C45.6314 32.1785 45.0816 31.3475 44.3881 30.6484C43.6945 29.9493 42.8709 29.3958 41.9646 29.02C41.0584 28.6442 40.0875 28.4534 39.1079 28.4587C38.1284 28.4639 37.1596 28.6651 36.2573 29.0507C35.3551 29.4362 34.5373 29.9985 33.8512 30.705C32.4797 32.1171 31.716 34.0198 31.7265 35.9984C31.7369 37.9771 32.5205 39.8714 33.9067 41.2687C35.2929 42.6661 37.1693 43.4531 39.1272 43.4585C41.085 43.4639 42.9657 42.6872 44.3594 41.2975Z" stroke="#FFD028" stroke-width="3" stroke-linecap="round" stroke-linejoin="round"/>
</svg>
