<svg width="52" height="52" viewBox="0 0 52 52" fill="none" xmlns="http://www.w3.org/2000/svg">
<path opacity="0.25" d="M26 23C28.3869 23 30.6761 22.0518 32.364 20.364C34.0518 18.6761 35 16.3869 35 14C35 11.6131 34.0518 9.32387 32.364 7.63604C30.6761 5.94821 28.3869 5 26 5C23.6131 5 21.3239 5.94821 19.636 7.63604C17.9482 9.32387 17 11.6131 17 14C17 16.3869 17.9482 18.6761 19.636 20.364C21.3239 22.0518 23.6131 23 26 23Z" fill="#FFD028"/>
<path d="M26 24.1724C31.6942 24.1724 36.3103 19.6567 36.3103 14.0862C36.3103 8.51575 31.6942 4 26 4C20.3058 4 15.6897 8.51575 15.6897 14.0862C15.6897 19.6567 20.3058 24.1724 26 24.1724ZM26 24.1724V39.6897M35.5172 37.1417C43.4705 38.1193 49 40.2824 49 42.7931C49 46.2224 38.7023 49 26 49C13.2977 49 3 46.2224 3 42.7931C3 40.2824 8.52952 38.1162 16.4828 37.1417" stroke="#FFD028" stroke-width="3" stroke-linecap="round" stroke-linejoin="round"/>
</svg>
