<svg width="43" height="48" viewBox="0 0 43 48" fill="none" xmlns="http://www.w3.org/2000/svg">
<path opacity="0.25" d="M7 46C8.32608 46 9.59785 45.4732 10.5355 44.5355C11.4732 43.5979 12 42.3261 12 41C12 39.6739 11.4732 38.4021 10.5355 37.4645C9.59785 36.5268 8.32608 36 7 36C5.67392 36 4.40215 36.5268 3.46447 37.4645C2.52678 38.4021 2 39.6739 2 41C2 42.3261 2.52678 43.5979 3.46447 44.5355C4.40215 45.4732 5.67392 46 7 46Z" fill="#FFD028"/>
<path d="M7 46C8.32608 46 9.59785 45.4732 10.5355 44.5355C11.4732 43.5979 12 42.3261 12 41C12 39.6739 11.4732 38.4021 10.5355 37.4645C9.59785 36.5268 8.32608 36 7 36C5.67392 36 4.40215 36.5268 3.46447 37.4645C2.52678 38.4021 2 39.6739 2 41C2 42.3261 2.52678 43.5979 3.46447 44.5355C4.40215 45.4732 5.67392 46 7 46Z" stroke="#FFD028" stroke-width="3" stroke-linecap="round" stroke-linejoin="round"/>
<path opacity="0.25" d="M36 12C37.3261 12 38.5979 11.4732 39.5355 10.5355C40.4732 9.59785 41 8.32608 41 7C41 5.67392 40.4732 4.40215 39.5355 3.46447C38.5979 2.52678 37.3261 2 36 2C34.6739 2 33.4021 2.52678 32.4645 3.46447C31.5268 4.40215 31 5.67392 31 7C31 8.32608 31.5268 9.59785 32.4645 10.5355C33.4021 11.4732 34.6739 12 36 12Z" fill="#FFD028"/>
<path d="M36 12C37.3261 12 38.5979 11.4732 39.5355 10.5355C40.4732 9.59785 41 8.32608 41 7C41 5.67392 40.4732 4.40215 39.5355 3.46447C38.5979 2.52678 37.3261 2 36 2C34.6739 2 33.4021 2.52678 32.4645 3.46447C31.5268 4.40215 31 5.67392 31 7C31 8.32608 31.5268 9.59785 32.4645 10.5355C33.4021 11.4732 34.6739 12 36 12Z" stroke="#FFD028" stroke-width="3" stroke-linecap="round" stroke-linejoin="round"/>
<path d="M21.2667 41H32.3667C33.5004 41 34.6231 40.7801 35.6705 40.353C36.7179 39.9258 37.6697 39.2997 38.4714 38.5104C39.273 37.7211 39.909 36.7841 40.3428 35.7528C40.7767 34.7215 41 33.6162 41 32.5C41 31.3838 40.7767 30.2785 40.3428 29.2472C39.909 28.2159 39.273 27.2789 38.4714 26.4896C37.6697 25.7003 36.7179 25.0742 35.6705 24.647C34.6231 24.2199 33.5004 24 32.3667 24H12.6333C10.3436 24 8.14771 23.1045 6.52865 21.5104C4.90958 19.9163 4 17.7543 4 15.5C4 13.2457 4.90958 11.0837 6.52865 9.48959C8.14771 7.89553 10.3436 7 12.6333 7H21.2667" stroke="#FFD028" stroke-width="3" stroke-linecap="round" stroke-linejoin="round"/>
</svg>
