<svg width="28" height="29" viewBox="0 0 28 29" fill="none" xmlns="http://www.w3.org/2000/svg">
<g clip-path="url(#clip0_3506_6567)">
<path d="M14 28.5C21.732 28.5 28 22.232 28 14.5C28 6.76801 21.732 0.5 14 0.5C6.26801 0.5 0 6.76801 0 14.5C0 22.232 6.26801 28.5 14 28.5Z" fill="#0052B4"/>
<path d="M13.9999 5.97827L14.4532 7.37329H15.9199L14.7333 8.23544L15.1866 9.63047L13.9999 8.76826L12.8132 9.63047L13.2665 8.23544L12.0798 7.37329H13.5466L13.9999 5.97827Z" fill="#FFDA44"/>
<path d="M7.97419 8.47422L9.28122 9.14009L10.3184 8.103L10.0888 9.55167L11.3958 10.2176L9.9471 10.4471L9.71763 11.8958L9.0517 10.5889L7.60303 10.8184L8.64018 9.78125L7.97419 8.47422Z" fill="#FFDA44"/>
<path d="M5.47827 14.5L6.87329 14.0467V12.5799L7.73539 13.7666L9.13047 13.3133L8.26821 14.5L9.13047 15.6867L7.73539 15.2334L6.87329 16.4201V14.9533L5.47827 14.5Z" fill="#FFDA44"/>
<path d="M7.97419 20.5258L8.64012 19.2188L7.60303 18.1816L9.05175 18.4112L9.71757 17.1042L9.9471 18.5529L11.3958 18.7824L10.089 19.4483L10.3184 20.897L9.28122 19.8599L7.97419 20.5258Z" fill="#FFDA44"/>
<path d="M13.9999 23.0217L13.5466 21.6267H12.0798L13.2666 20.7646L12.8132 19.3697L13.9999 20.2318L15.1866 19.3697L14.7333 20.7646L15.9199 21.6267H14.4532L13.9999 23.0217Z" fill="#FFDA44"/>
<path d="M20.0258 20.5258L18.7188 19.8599L17.6816 20.8971L17.9111 19.4483L16.6042 18.7824L18.0529 18.5529L18.2824 17.1042L18.9483 18.4112L20.3969 18.1816L19.3598 19.2189L20.0258 20.5258Z" fill="#FFDA44"/>
<path d="M22.5217 14.5L21.1267 14.9533V16.4201L20.2645 15.2334L18.8696 15.6867L19.7318 14.5L18.8696 13.3133L20.2646 13.7666L21.1267 12.5799V14.0468L22.5217 14.5Z" fill="#FFDA44"/>
<path d="M20.0258 8.47422L19.3598 9.78125L20.397 10.8184L18.9482 10.5888L18.2824 11.8958L18.0529 10.4471L16.6042 10.2176L17.9111 9.55168L17.6816 8.10306L18.7188 9.14015L20.0258 8.47422Z" fill="#FFDA44"/>
</g>
<defs>
<clipPath id="clip0_3506_6567">
<rect width="28" height="28" fill="white" transform="translate(0 0.5)"/>
</clipPath>
</defs>
</svg>
