<svg width="132" height="46" viewBox="0 0 132 46" fill="none" xmlns="http://www.w3.org/2000/svg">
<g clip-path="url(#clip0_3506_11649)">
<path d="M18.8288 0.130245C26.1584 1.30305 32.6811 7.29738 31.4707 11.728C-0.335703 6.71098 2.35406 23.456 2.35406 23.456C-7.0601 0.846959 14.3235 -0.586469 18.8288 0.130245ZM29.0499 5.01693C29.0499 5.01693 45.2557 10.7506 25.486 35.7705C28.8482 39.0283 37.3209 36.2266 41.8935 30.4277C44.6505 26.9093 53.6612 7.68832 29.0499 5.01693ZM32.0087 37.1387C32.0087 37.1387 18.6271 47.7591 7.19563 18.1133C2.69028 19.2861 0.605714 27.8215 3.29547 34.6628C4.90933 38.898 16.8115 56.4249 32.0087 37.1387Z" fill="#080518"/>
<path d="M72.0855 24.2379H58.9729L58.4349 26.8441H73.0269L71.951 31.796H50.0967L53.1227 18.1133H60.3178L60.0488 19.2861H73.1614L72.0855 24.2379ZM54.5348 11.6628H76.3218L75.2459 16.6147H53.4589L54.5348 11.6628Z" fill="#080518"/>
<path d="M102.412 17.3314H79.415L80.6254 11.6628H103.623L102.412 17.3314ZM91.3172 31.796H84.1221L86.9464 18.83H94.1415L91.3172 31.796Z" fill="#080518"/>
<path d="M113.844 18.0481C113.776 18.2436 113.844 18.439 113.844 18.6345C113.911 18.83 114.045 18.9603 114.247 19.0906C114.718 19.2861 115.726 19.4164 117.408 19.4815C119.089 19.5467 120.703 19.6119 122.384 19.6119C123.729 19.6119 124.67 19.677 125.208 19.677C126.822 19.7422 128.167 20.1331 129.243 20.7195C130.318 21.3059 130.722 22.4787 130.318 24.1076L129.579 27.3002C129.243 28.864 128.368 30.0368 126.956 30.6883C125.544 31.4051 124.132 31.7308 122.72 31.7308H109.943C108.397 31.7308 106.985 31.4051 105.842 30.6883C104.698 29.9716 104.295 28.7988 104.631 27.1048L105.035 25.3456H112.23L112.095 25.932C112.028 26.5184 112.297 26.779 113.037 26.8441H121.24C122.115 26.779 122.653 26.3881 122.72 25.6713C122.787 25.3456 122.787 25.0849 122.787 24.8895C122.787 24.694 122.653 24.4334 122.384 24.3031C121.913 24.1076 120.904 23.9773 119.223 23.847C117.542 23.7818 115.928 23.7167 114.247 23.7167C112.902 23.7167 111.961 23.6515 111.423 23.6515C109.809 23.5864 108.464 23.1954 107.388 22.609C106.312 22.0226 105.909 20.8498 106.312 19.2209L106.581 17.9178H113.844V18.0481ZM106.918 16.5495L106.985 16.2237C107.321 14.5949 108.195 13.422 109.54 12.7053C110.885 11.9886 112.297 11.6628 113.844 11.6628H126.486C128.032 11.6628 129.444 11.9886 130.587 12.7053C131.731 13.3569 132.134 14.5949 131.798 16.2889L131.394 18.0481H124.199L124.334 17.4617C124.401 16.8753 124.132 16.6147 123.392 16.5495H106.918Z" fill="#080518"/>
<path d="M50.9036 35.8357H51.7778L51.1053 39.0283H53.1899L53.0554 39.745H50.0967L50.9036 35.8357Z" fill="#080518"/>
<path d="M55.4766 39.5495C55.2076 39.4192 54.9386 39.2237 54.8041 38.9631C54.6696 38.7025 54.5352 38.4419 54.5352 38.0509C54.5352 37.5948 54.6696 37.2039 54.8714 36.8781C55.0731 36.5523 55.4093 36.2266 55.7456 36.0311C56.149 35.8356 56.5525 35.7053 57.0232 35.7053C57.4267 35.7053 57.7629 35.7705 58.0991 35.9008C58.3681 36.0311 58.637 36.2266 58.7715 36.4872C58.906 36.7478 59.0405 37.0084 59.0405 37.3994C59.0405 37.8555 58.906 38.2464 58.7043 38.5722C58.5026 38.898 58.1663 39.2237 57.8301 39.4192C57.4266 39.6147 57.0232 39.745 56.5525 39.745C56.149 39.8101 55.8128 39.745 55.4766 39.5495ZM57.4267 38.8328C57.6284 38.7025 57.8301 38.507 57.9646 38.2464C58.0991 37.9858 58.1663 37.7252 58.1663 37.4645C58.1663 37.1388 58.0318 36.9433 57.8301 36.7478C57.6284 36.5523 57.3594 36.4872 56.9559 36.4872C56.6197 36.4872 56.3507 36.5523 56.149 36.6827C55.9473 36.813 55.7455 37.0084 55.6111 37.2691C55.4766 37.5297 55.4093 37.7903 55.4093 38.0509C55.4093 38.3767 55.4766 38.5722 55.6783 38.7676C55.88 38.9631 56.149 39.0283 56.5525 39.0283C56.9559 39.0283 57.2249 38.9631 57.4267 38.8328Z" fill="#080518"/>
<path d="M63.4788 37.7252H64.2858L63.9495 39.3541C63.7478 39.4844 63.4788 39.6147 63.2099 39.6799C62.9409 39.745 62.6719 39.8102 62.3357 39.8102C61.9322 39.8102 61.596 39.745 61.2598 39.6147C60.9908 39.4844 60.7218 39.2889 60.5873 39.0283C60.4528 38.7677 60.3184 38.5071 60.3184 38.1161C60.3184 37.66 60.4528 37.2691 60.6546 36.9433C60.8563 36.6175 61.1925 36.2918 61.5288 36.0963C61.9322 35.9008 62.3357 35.7705 62.8736 35.7705C63.2771 35.7705 63.6133 35.8357 63.8823 35.966C64.1513 36.0963 64.4202 36.2266 64.5547 36.4221L63.8823 36.9433C63.7478 36.813 63.6133 36.6827 63.4116 36.6175C63.2099 36.5524 63.0081 36.4872 62.8064 36.4872C62.4702 36.4872 62.2012 36.5524 61.9995 36.6827C61.7305 36.813 61.596 37.0085 61.4615 37.2691C61.327 37.5297 61.2598 37.7903 61.2598 38.051C61.2598 38.3767 61.3943 38.6374 61.596 38.7677C61.7977 38.9631 62.134 39.0283 62.4702 39.0283C62.7391 39.0283 62.9409 38.9631 63.1426 38.898L63.4788 37.7252Z" fill="#080518"/>
<path d="M66.7063 35.8357H67.6478L66.8408 39.745H65.8994L66.7063 35.8357Z" fill="#080518"/>
<path d="M69.3287 39.6799C69.0597 39.6147 68.7907 39.4844 68.6562 39.3541L68.9925 38.6374C69.1942 38.7677 69.3959 38.898 69.5977 38.9632C69.8666 39.0283 70.0684 39.0935 70.3374 39.0935C70.6063 39.0935 70.8081 39.0283 70.9425 38.9632C71.077 38.898 71.1443 38.7677 71.1443 38.6374C71.1443 38.5071 71.077 38.4419 70.9425 38.3768C70.8081 38.3116 70.6063 38.2465 70.3374 38.1813C70.0684 38.1161 69.8666 38.051 69.6649 37.9858C69.5304 37.9207 69.3287 37.7904 69.2614 37.6601C69.127 37.5297 69.0597 37.3343 69.0597 37.1388C69.0597 36.7479 69.1942 36.4221 69.5304 36.1615C69.8666 35.9008 70.3374 35.8357 70.8753 35.8357C71.1443 35.8357 71.4133 35.8357 71.6822 35.9008C71.9512 35.966 72.1529 36.0312 72.2874 36.1615L71.9512 36.813C71.6822 36.6176 71.2788 36.5524 70.8081 36.5524C70.5391 36.5524 70.3374 36.6176 70.1356 36.6827C70.0011 36.7479 69.8666 36.8782 69.8666 37.0737C69.8666 37.204 69.9339 37.2691 70.0684 37.3343C70.2029 37.3994 70.4046 37.4646 70.6736 37.5297C70.9425 37.5949 71.1443 37.6601 71.346 37.7252C71.4805 37.7904 71.6822 37.9207 71.7495 38.051C71.884 38.1813 71.9512 38.3768 71.9512 38.5722C71.9512 38.8329 71.884 39.0935 71.7495 39.289C71.615 39.4844 71.4133 39.6147 71.077 39.745C70.8081 39.8754 70.4718 39.9405 70.0684 39.9405C69.9339 39.8102 69.6649 39.745 69.3287 39.6799Z" fill="#080518"/>
<path d="M74.9767 36.5524H73.6318L73.7663 35.8357H77.3303L77.1958 36.5524H75.8509L75.1785 39.745H74.3043L74.9767 36.5524Z" fill="#080518"/>
<path d="M78.8772 35.8357H79.7514L78.9445 39.745H78.0703L78.8772 35.8357Z" fill="#080518"/>
<path d="M82.0381 39.5495C81.7691 39.4192 81.5001 39.2237 81.3657 38.9631C81.2312 38.7025 81.0967 38.3767 81.0967 38.0509C81.0967 37.5948 81.2312 37.2039 81.4329 36.8781C81.6346 36.5523 81.9709 36.2266 82.3071 36.0311C82.7105 35.8356 83.114 35.7053 83.5847 35.7053C83.9209 35.7053 84.2571 35.7705 84.5261 35.9008C84.7951 36.0311 84.9968 36.1614 85.1313 36.422L84.4589 36.9433C84.3244 36.813 84.1899 36.6827 84.0554 36.6175C83.8537 36.5523 83.7192 36.4872 83.4502 36.4872C83.114 36.4872 82.845 36.5523 82.6433 36.6827C82.3743 36.813 82.2398 37.0084 82.1053 37.2691C81.9709 37.5297 81.9036 37.7903 81.9036 38.0509C81.9036 38.3767 82.0381 38.6373 82.2398 38.7676C82.4416 38.9631 82.7105 39.0283 83.114 39.0283C83.5175 39.0283 83.9209 38.898 84.1899 38.5722L84.7279 39.0934C84.3244 39.5495 83.7192 39.745 82.9795 39.745C82.7105 39.8101 82.3743 39.745 82.0381 39.5495Z" fill="#080518"/>
<path d="M86.6773 39.6799C86.4083 39.6147 86.1394 39.4844 86.0049 39.3541L86.3411 38.6374C86.5428 38.7677 86.7446 38.898 86.9463 38.9632C87.2153 39.0283 87.417 39.0935 87.686 39.0935C87.955 39.0935 88.1567 39.0283 88.2912 38.9632C88.4257 38.898 88.4929 38.7677 88.4929 38.6374C88.4929 38.5071 88.4257 38.4419 88.2912 38.3768C88.1567 38.3116 87.955 38.2465 87.686 38.1813C87.417 38.1161 87.2153 38.051 87.0135 37.9858C86.879 37.9207 86.6773 37.7904 86.6101 37.6601C86.4756 37.5297 86.4083 37.3343 86.4083 37.1388C86.4083 36.7479 86.5428 36.4221 86.8791 36.1615C87.2153 35.9008 87.686 35.8357 88.2239 35.8357C88.4929 35.8357 88.7619 35.8357 89.0309 35.9008C89.2998 35.966 89.5016 36.0312 89.6361 36.1615L89.2998 36.813C89.0309 36.6176 88.6274 36.5524 88.1567 36.5524C87.8877 36.5524 87.686 36.6176 87.4843 36.6827C87.3498 36.7479 87.2153 36.8782 87.2153 37.0737C87.2153 37.204 87.2825 37.2691 87.417 37.3343C87.5515 37.3994 87.7532 37.4646 88.0222 37.5297C88.2912 37.5949 88.4929 37.6601 88.6946 37.7252C88.8291 37.7904 89.0309 37.9207 89.0981 38.051C89.2326 38.1813 89.2998 38.3768 89.2998 38.5722C89.2998 38.8329 89.2326 39.0935 89.0981 39.289C88.9636 39.4844 88.7619 39.6147 88.4257 39.745C88.1567 39.8754 87.8205 39.9405 87.417 39.9405C87.2825 39.8102 87.0135 39.745 86.6773 39.6799Z" fill="#080518"/>
<path d="M94.8145 39.5495C94.5455 39.4192 94.2765 39.2237 94.142 38.9631C94.0075 38.7025 93.873 38.3767 93.873 38.0509C93.873 37.5948 94.0075 37.2039 94.2093 36.8781C94.411 36.5523 94.7472 36.2266 95.0834 36.0311C95.4869 35.8356 95.8904 35.7053 96.3611 35.7053C96.6973 35.7053 97.0335 35.7705 97.3025 35.9008C97.5715 36.0311 97.7732 36.1614 97.9077 36.422L97.2352 36.9433C97.1008 36.813 96.9663 36.6827 96.8318 36.6175C96.63 36.5523 96.4956 36.4872 96.2266 36.4872C95.8904 36.4872 95.6214 36.5523 95.4197 36.6827C95.1507 36.813 95.0162 37.0084 94.8817 37.2691C94.7472 37.5297 94.68 37.7903 94.68 38.0509C94.68 38.3767 94.8145 38.6373 95.0162 38.7676C95.2179 38.9631 95.4869 39.0283 95.8904 39.0283C96.2938 39.0283 96.6973 38.898 96.9663 38.5722L97.5042 39.0934C97.1008 39.5495 96.4956 39.745 95.7559 39.745C95.4869 39.8101 95.1507 39.745 94.8145 39.5495Z" fill="#080518"/>
<path d="M99.9248 39.5495C99.6558 39.4192 99.3869 39.2237 99.2524 38.9631C99.1179 38.7025 98.9834 38.4419 98.9834 38.0509C98.9834 37.5948 99.1179 37.2039 99.3196 36.8781C99.5214 36.5523 99.8576 36.2266 100.194 36.0311C100.597 35.8356 101.001 35.7053 101.471 35.7053C101.875 35.7053 102.211 35.7705 102.547 35.9008C102.816 36.0311 103.085 36.2266 103.22 36.4872C103.354 36.7478 103.489 37.0084 103.489 37.3994C103.489 37.8555 103.354 38.2464 103.153 38.5722C102.951 38.898 102.615 39.2237 102.278 39.4192C101.875 39.6147 101.471 39.745 101.001 39.745C100.597 39.8101 100.261 39.745 99.9248 39.5495ZM101.875 38.8328C102.077 38.7025 102.278 38.507 102.413 38.2464C102.547 37.9858 102.615 37.7252 102.615 37.4645C102.615 37.1388 102.547 36.9433 102.346 36.7478C102.144 36.5523 101.875 36.4872 101.471 36.4872C101.135 36.4872 100.866 36.5523 100.664 36.6827C100.463 36.813 100.261 37.0084 100.127 37.2691C99.9921 37.5297 99.9248 37.7903 99.9248 38.0509C99.9248 38.3767 100.059 38.5722 100.194 38.7676C100.396 38.9631 100.665 39.0283 101.068 39.0283C101.404 39.0283 101.673 38.9631 101.875 38.8328Z" fill="#080518"/>
<path d="M110.213 35.8357L109.406 39.745H108.599L109.07 37.3343L107.456 39.289H107.052L106.178 37.3343L105.707 39.745H104.9L105.64 35.8357H106.38L107.456 38.3116L109.473 35.8357H110.213Z" fill="#080518"/>
<path d="M115.121 36.1614C115.39 36.3569 115.525 36.6827 115.525 37.0736C115.525 37.3994 115.458 37.66 115.256 37.9207C115.054 38.1813 114.852 38.3767 114.583 38.5071C114.314 38.6374 113.911 38.7025 113.508 38.7025H112.566L112.364 39.8102H111.49L112.297 35.9008H113.911C114.516 35.8357 114.852 35.9008 115.121 36.1614ZM114.382 37.7252C114.583 37.5949 114.651 37.3994 114.651 37.0736C114.651 36.8782 114.583 36.7478 114.449 36.6175C114.314 36.4872 114.113 36.4872 113.844 36.4872H113.037L112.768 37.9207H113.575C113.978 37.9207 114.18 37.8555 114.382 37.7252Z" fill="#080518"/>
<path d="M120.434 39.745H119.56L119.358 38.898H117.408L116.87 39.745H115.929L118.551 35.8357H119.425L120.434 39.745ZM119.224 38.2465L118.82 36.6176L117.812 38.2465H119.224Z" fill="#080518"/>
<path d="M126.418 35.8357L125.612 39.745H124.872L123.325 37.204L122.787 39.745H121.913L122.72 35.8357H123.46L125.006 38.3116L125.544 35.8357H126.418Z" fill="#080518"/>
<path d="M129.916 38.3768L129.647 39.745H128.705L129.042 38.3768L127.966 35.8357H128.84L129.58 37.5949L131.126 35.8357H132L129.916 38.3768Z" fill="#080518"/>
</g>
<defs>
<clipPath id="clip0_3506_11649">
<rect width="132" height="46" fill="white"/>
</clipPath>
</defs>
</svg>
