<svg width="140" height="54" viewBox="0 0 140 54" fill="none" xmlns="http://www.w3.org/2000/svg">
<g clip-path="url(#clip0_3506_7950)" filter="url(#filter0_d_3506_7950)">
<path d="M22.8288 0.130245C30.1584 1.30305 36.6811 7.29738 35.4707 11.728C3.6643 6.71098 6.35406 23.456 6.35406 23.456C-3.0601 0.846959 18.3235 -0.586469 22.8288 0.130245ZM33.0499 5.01693C33.0499 5.01693 49.2557 10.7506 29.486 35.7705C32.8482 39.0283 41.3209 36.2266 45.8935 30.4277C48.6505 26.9093 57.6612 7.68832 33.0499 5.01693ZM36.0087 37.1387C36.0087 37.1387 22.6271 47.7591 11.1956 18.1133C6.69028 19.2861 4.60571 27.8215 7.29547 34.6628C8.90933 38.898 20.8115 56.4249 36.0087 37.1387Z" fill="white"/>
<path d="M76.0856 24.2379H62.973L62.4351 26.8441H77.027L75.9511 31.796H54.0968L57.1228 18.1133H64.3179L64.0489 19.2861H77.1615L76.0856 24.2379ZM58.5349 11.6628H80.322L79.2461 16.6147H57.459L58.5349 11.6628Z" fill="white"/>
<path d="M106.413 17.3314H83.4152L84.6256 11.6628H107.623L106.413 17.3314ZM95.3174 31.796H88.1222L90.9465 18.83H98.1416L95.3174 31.796Z" fill="white"/>
<path d="M117.844 18.0481C117.777 18.2436 117.844 18.439 117.844 18.6345C117.911 18.83 118.046 18.9603 118.248 19.0906C118.718 19.2861 119.727 19.4164 121.408 19.4815C123.089 19.5467 124.703 19.6119 126.384 19.6119C127.729 19.6119 128.67 19.677 129.208 19.677C130.822 19.7422 132.167 20.1331 133.243 20.7195C134.319 21.3059 134.722 22.4787 134.319 24.1076L133.579 27.3002C133.243 28.864 132.369 30.0368 130.957 30.6883C129.545 31.4051 128.132 31.7308 126.72 31.7308H113.944C112.397 31.7308 110.985 31.4051 109.842 30.6883C108.699 29.9716 108.295 28.7988 108.632 27.1048L109.035 25.3456H116.23L116.096 25.932C116.029 26.5184 116.298 26.779 117.037 26.8441H125.241C126.115 26.779 126.653 26.3881 126.72 25.6713C126.788 25.3456 126.788 25.0849 126.788 24.8895C126.788 24.694 126.653 24.4334 126.384 24.3031C125.913 24.1076 124.905 23.9773 123.224 23.847C121.543 23.7818 119.929 23.7167 118.248 23.7167C116.903 23.7167 115.961 23.6515 115.423 23.6515C113.809 23.5864 112.465 23.1954 111.389 22.609C110.313 22.0226 109.909 20.8498 110.313 19.2209L110.582 17.9178H117.844V18.0481ZM110.918 16.5495L110.985 16.2237C111.321 14.5949 112.196 13.422 113.541 12.7053C114.885 11.9886 116.298 11.6628 117.844 11.6628H130.486C132.033 11.6628 133.445 11.9886 134.588 12.7053C135.731 13.3569 136.135 14.5949 135.798 16.2889L135.395 18.0481H128.2L128.334 17.4617C128.401 16.8753 128.132 16.6147 127.393 16.5495H110.918Z" fill="white"/>
<path d="M54.9037 35.8357H55.7779L55.1055 39.0283H57.19L57.0555 39.745H54.0968L54.9037 35.8357Z" fill="white"/>
<path d="M59.4763 39.5495C59.2074 39.4192 58.9384 39.2237 58.8039 38.9631C58.6694 38.7025 58.5349 38.4419 58.5349 38.0509C58.5349 37.5948 58.6694 37.2039 58.8711 36.8781C59.0729 36.5523 59.4091 36.2266 59.7453 36.0311C60.1488 35.8356 60.5522 35.7053 61.0229 35.7053C61.4264 35.7053 61.7626 35.7705 62.0988 35.9008C62.3678 36.0311 62.6368 36.2266 62.7713 36.4872C62.9058 36.7478 63.0403 37.0084 63.0403 37.3994C63.0403 37.8555 62.9058 38.2464 62.704 38.5722C62.5023 38.898 62.1661 39.2237 61.8299 39.4192C61.4264 39.6147 61.0229 39.745 60.5522 39.745C60.1488 39.8101 59.8125 39.745 59.4763 39.5495ZM61.4264 38.8328C61.6281 38.7025 61.8299 38.507 61.9644 38.2464C62.0988 37.9858 62.1661 37.7252 62.1661 37.4645C62.1661 37.1388 62.0316 36.9433 61.8299 36.7478C61.6281 36.5523 61.3592 36.4872 60.9557 36.4872C60.6195 36.4872 60.3505 36.5523 60.1488 36.6827C59.947 36.813 59.7453 37.0084 59.6108 37.2691C59.4763 37.5297 59.4091 37.7903 59.4091 38.0509C59.4091 38.3767 59.4763 38.5722 59.6781 38.7676C59.8798 38.9631 60.1488 39.0283 60.5522 39.0283C60.9557 39.0283 61.2247 38.9631 61.4264 38.8328Z" fill="white"/>
<path d="M67.4783 37.7252H68.2853L67.949 39.3541C67.7473 39.4844 67.4783 39.6147 67.2094 39.6799C66.9404 39.745 66.6714 39.8102 66.3352 39.8102C65.9317 39.8102 65.5955 39.745 65.2593 39.6147C64.9903 39.4844 64.7213 39.2889 64.5868 39.0283C64.4524 38.7677 64.3179 38.5071 64.3179 38.1161C64.3179 37.66 64.4524 37.2691 64.6541 36.9433C64.8558 36.6175 65.192 36.2918 65.5283 36.0963C65.9317 35.9008 66.3352 35.7705 66.8731 35.7705C67.2766 35.7705 67.6128 35.8357 67.8818 35.966C68.1508 36.0963 68.4198 36.2266 68.5542 36.4221L67.8818 36.9433C67.7473 36.813 67.6128 36.6827 67.4111 36.6175C67.2094 36.5524 67.0076 36.4872 66.8059 36.4872C66.4697 36.4872 66.2007 36.5524 65.999 36.6827C65.73 36.813 65.5955 37.0085 65.461 37.2691C65.3265 37.5297 65.2593 37.7903 65.2593 38.051C65.2593 38.3767 65.3938 38.6374 65.5955 38.7677C65.7972 38.9631 66.1335 39.0283 66.4697 39.0283C66.7387 39.0283 66.9404 38.9631 67.1421 38.898L67.4783 37.7252Z" fill="white"/>
<path d="M70.7061 35.8357H71.6475L70.8406 39.745H69.8992L70.7061 35.8357Z" fill="white"/>
<path d="M73.3286 39.6799C73.0596 39.6147 72.7906 39.4844 72.6561 39.3541L72.9923 38.6374C73.1941 38.7677 73.3958 38.898 73.5975 38.9632C73.8665 39.0283 74.0683 39.0935 74.3372 39.0935C74.6062 39.0935 74.8079 39.0283 74.9424 38.9632C75.0769 38.898 75.1442 38.7677 75.1442 38.6374C75.1442 38.5071 75.0769 38.4419 74.9424 38.3768C74.8079 38.3116 74.6062 38.2465 74.3372 38.1813C74.0683 38.1161 73.8665 38.051 73.6648 37.9858C73.5303 37.9207 73.3286 37.7904 73.2613 37.6601C73.1268 37.5297 73.0596 37.3343 73.0596 37.1388C73.0596 36.7479 73.1941 36.4221 73.5303 36.1615C73.8665 35.9008 74.3372 35.8357 74.8752 35.8357C75.1442 35.8357 75.4131 35.8357 75.6821 35.9008C75.9511 35.966 76.1528 36.0312 76.2873 36.1615L75.9511 36.813C75.6821 36.6176 75.2786 36.5524 74.8079 36.5524C74.539 36.5524 74.3372 36.6176 74.1355 36.6827C74.001 36.7479 73.8665 36.8782 73.8665 37.0737C73.8665 37.204 73.9338 37.2691 74.0683 37.3343C74.2027 37.3994 74.4045 37.4646 74.6734 37.5297C74.9424 37.5949 75.1442 37.6601 75.3459 37.7252C75.4804 37.7904 75.6821 37.9207 75.7494 38.051C75.8838 38.1813 75.9511 38.3768 75.9511 38.5722C75.9511 38.8329 75.8838 39.0935 75.7494 39.289C75.6149 39.4844 75.4131 39.6147 75.0769 39.745C74.8079 39.8754 74.4717 39.9405 74.0683 39.9405C73.9338 39.8102 73.6648 39.745 73.3286 39.6799Z" fill="white"/>
<path d="M78.9771 36.5524H77.6322L77.7667 35.8357H81.3306L81.1961 36.5524H79.8513L79.1788 39.745H78.3046L78.9771 36.5524Z" fill="white"/>
<path d="M82.8772 35.8357H83.7514L82.9445 39.745H82.0703L82.8772 35.8357Z" fill="white"/>
<path d="M86.0377 39.5495C85.7688 39.4192 85.4998 39.2237 85.3653 38.9631C85.2308 38.7025 85.0963 38.3767 85.0963 38.0509C85.0963 37.5948 85.2308 37.2039 85.4325 36.8781C85.6343 36.5523 85.9705 36.2266 86.3067 36.0311C86.7102 35.8356 87.1136 35.7053 87.5843 35.7053C87.9206 35.7053 88.2568 35.7705 88.5258 35.9008C88.7947 36.0311 88.9965 36.1614 89.131 36.422L88.4585 36.9433C88.324 36.813 88.1895 36.6827 88.0551 36.6175C87.8533 36.5523 87.7188 36.4872 87.4499 36.4872C87.1136 36.4872 86.8447 36.5523 86.6429 36.6827C86.374 36.813 86.2395 37.0084 86.105 37.2691C85.9705 37.5297 85.9032 37.7903 85.9032 38.0509C85.9032 38.3767 86.0377 38.6373 86.2395 38.7676C86.4412 38.9631 86.7102 39.0283 87.1136 39.0283C87.5171 39.0283 87.9206 38.898 88.1895 38.5722L88.7275 39.0934C88.324 39.5495 87.7188 39.745 86.9791 39.745C86.7102 39.8101 86.374 39.745 86.0377 39.5495Z" fill="white"/>
<path d="M90.6776 39.6799C90.4086 39.6147 90.1396 39.4844 90.0051 39.3541L90.3413 38.6374C90.5431 38.7677 90.7448 38.898 90.9465 38.9632C91.2155 39.0283 91.4172 39.0935 91.6862 39.0935C91.9552 39.0935 92.1569 39.0283 92.2914 38.9632C92.4259 38.898 92.4932 38.7677 92.4932 38.6374C92.4932 38.5071 92.4259 38.4419 92.2914 38.3768C92.1569 38.3116 91.9552 38.2465 91.6862 38.1813C91.4172 38.1161 91.2155 38.051 91.0138 37.9858C90.8793 37.9207 90.6776 37.7904 90.6103 37.6601C90.4758 37.5297 90.4086 37.3343 90.4086 37.1388C90.4086 36.7479 90.5431 36.4221 90.8793 36.1615C91.2155 35.9008 91.6862 35.8357 92.2242 35.8357C92.4932 35.8357 92.7621 35.8357 93.0311 35.9008C93.3001 35.966 93.5018 36.0312 93.6363 36.1615L93.3001 36.813C93.0311 36.6176 92.6276 36.5524 92.1569 36.5524C91.888 36.5524 91.6862 36.6176 91.4845 36.6827C91.35 36.7479 91.2155 36.8782 91.2155 37.0737C91.2155 37.204 91.2828 37.2691 91.4173 37.3343C91.5517 37.3994 91.7535 37.4646 92.0224 37.5297C92.2914 37.5949 92.4932 37.6601 92.6949 37.7252C92.8294 37.7904 93.0311 37.9207 93.0984 38.051C93.2328 38.1813 93.3001 38.3768 93.3001 38.5722C93.3001 38.8329 93.2328 39.0935 93.0984 39.289C92.9639 39.4844 92.7621 39.6147 92.4259 39.745C92.1569 39.8754 91.8207 39.9405 91.4173 39.9405C91.2828 39.8102 91.0138 39.745 90.6776 39.6799Z" fill="white"/>
<path d="M98.8141 39.5495C98.5451 39.4192 98.2761 39.2237 98.1417 38.9631C98.0072 38.7025 97.8727 38.3767 97.8727 38.0509C97.8727 37.5948 98.0072 37.2039 98.2089 36.8781C98.4106 36.5523 98.7468 36.2266 99.0831 36.0311C99.4865 35.8356 99.89 35.7053 100.361 35.7053C100.697 35.7053 101.033 35.7705 101.302 35.9008C101.571 36.0311 101.773 36.1614 101.907 36.422L101.235 36.9433C101.1 36.813 100.966 36.6827 100.831 36.6175C100.63 36.5523 100.495 36.4872 100.226 36.4872C99.89 36.4872 99.621 36.5523 99.4193 36.6827C99.1503 36.813 99.0158 37.0084 98.8813 37.2691C98.7469 37.5297 98.6796 37.7903 98.6796 38.0509C98.6796 38.3767 98.8141 38.6373 99.0158 38.7676C99.2176 38.9631 99.4865 39.0283 99.89 39.0283C100.293 39.0283 100.697 38.898 100.966 38.5722L101.504 39.0934C101.1 39.5495 100.495 39.745 99.7555 39.745C99.4865 39.8101 99.1503 39.745 98.8141 39.5495Z" fill="white"/>
<path d="M103.925 39.5495C103.656 39.4192 103.387 39.2237 103.252 38.9631C103.118 38.7025 102.983 38.4419 102.983 38.0509C102.983 37.5948 103.118 37.2039 103.319 36.8781C103.521 36.5523 103.857 36.2266 104.194 36.0311C104.597 35.8356 105 35.7053 105.471 35.7053C105.875 35.7053 106.211 35.7705 106.547 35.9008C106.816 36.0311 107.085 36.2266 107.22 36.4872C107.354 36.7478 107.489 37.0084 107.489 37.3994C107.489 37.8555 107.354 38.2464 107.152 38.5722C106.951 38.898 106.614 39.2237 106.278 39.4192C105.875 39.6147 105.471 39.745 105 39.745C104.597 39.8101 104.261 39.745 103.925 39.5495ZM105.875 38.8328C106.076 38.7025 106.278 38.507 106.413 38.2464C106.547 37.9858 106.614 37.7252 106.614 37.4645C106.614 37.1388 106.547 36.9433 106.345 36.7478C106.144 36.5523 105.875 36.4872 105.471 36.4872C105.135 36.4872 104.866 36.5523 104.664 36.6827C104.463 36.813 104.261 37.0084 104.126 37.2691C103.992 37.5297 103.925 37.7903 103.925 38.0509C103.925 38.3767 104.059 38.5722 104.194 38.7676C104.395 38.9631 104.664 39.0283 105.068 39.0283C105.404 39.0283 105.673 38.9631 105.875 38.8328Z" fill="white"/>
<path d="M114.213 35.8357L113.406 39.745H112.599L113.07 37.3343L111.456 39.289H111.052L110.178 37.3343L109.708 39.745H108.901L109.64 35.8357H110.38L111.456 38.3116L113.473 35.8357H114.213Z" fill="white"/>
<path d="M119.122 36.1614C119.391 36.3569 119.525 36.6827 119.525 37.0736C119.525 37.3994 119.458 37.66 119.256 37.9207C119.055 38.1813 118.853 38.3767 118.584 38.5071C118.315 38.6374 117.911 38.7025 117.508 38.7025H116.566L116.365 39.8102H115.491L116.298 35.9008H117.911C118.517 35.8357 118.853 35.9008 119.122 36.1614ZM118.382 37.7252C118.584 37.5949 118.651 37.3994 118.651 37.0736C118.651 36.8782 118.584 36.7478 118.449 36.6175C118.315 36.4872 118.113 36.4872 117.844 36.4872H117.037L116.768 37.9207H117.575C117.979 37.9207 118.18 37.8555 118.382 37.7252Z" fill="white"/>
<path d="M124.434 39.745H123.56L123.358 38.898H121.408L120.87 39.745H119.929L122.551 35.8357H123.425L124.434 39.745ZM123.224 38.2465L122.82 36.6176L121.811 38.2465H123.224Z" fill="white"/>
<path d="M130.419 35.8357L129.612 39.745H128.872L127.326 37.204L126.788 39.745H125.913L126.72 35.8357H127.46L129.007 38.3116L129.545 35.8357H130.419Z" fill="white"/>
<path d="M133.915 38.3768L133.646 39.745H132.705L133.041 38.3768L131.965 35.8357H132.84L133.579 37.5949L135.126 35.8357H136L133.915 38.3768Z" fill="white"/>
</g>
<defs>
<filter id="filter0_d_3506_7950" x="0" y="0" width="140" height="54" filterUnits="userSpaceOnUse" color-interpolation-filters="sRGB">
<feFlood flood-opacity="0" result="BackgroundImageFix"/>
<feColorMatrix in="SourceAlpha" type="matrix" values="0 0 0 0 0 0 0 0 0 0 0 0 0 0 0 0 0 0 127 0" result="hardAlpha"/>
<feOffset dy="4"/>
<feGaussianBlur stdDeviation="2"/>
<feComposite in2="hardAlpha" operator="out"/>
<feColorMatrix type="matrix" values="0 0 0 0 0 0 0 0 0 0 0 0 0 0 0 0 0 0 0.25 0"/>
<feBlend mode="normal" in2="BackgroundImageFix" result="effect1_dropShadow_3506_7950"/>
<feBlend mode="normal" in="SourceGraphic" in2="effect1_dropShadow_3506_7950" result="shape"/>
</filter>
<clipPath id="clip0_3506_7950">
<rect width="132" height="46" fill="white" transform="translate(4)"/>
</clipPath>
</defs>
</svg>
