<svg width="28" height="29" viewBox="0 0 28 29" fill="none" xmlns="http://www.w3.org/2000/svg">
<g clip-path="url(#clip0_3506_6558)">
<rect y="0.5" width="28" height="28" rx="14" fill="#F93939"/>
<path d="M36.0448 0.5H4.31146C2.2496 0.5 0.578125 2.17147 0.578125 4.23333V24.7667C0.578125 26.8285 2.2496 28.5 4.31146 28.5H36.0448C38.1067 28.5 39.7781 26.8285 39.7781 24.7667V4.23333C39.7781 2.17147 38.1067 0.5 36.0448 0.5Z" fill="#F93939"/>
<path fill-rule="evenodd" clip-rule="evenodd" d="M6.17813 0.5L9.91146 3.3L6.17813 6.1V0.5ZM6.17813 6.1L9.91146 8.9L6.17813 11.7V6.1ZM6.17813 11.7L9.91146 14.5L6.17813 17.3V11.7ZM6.17813 17.3L9.91146 20.1L6.17813 22.9V17.3ZM6.17813 22.9L9.91146 25.7L6.17813 28.5V22.9ZM4.31146 0.5L0.578125 3.3L4.31146 6.1V0.5ZM4.31146 6.1L0.578125 8.9L4.31146 11.7V6.1ZM4.31146 11.7L0.578125 14.5L4.31146 17.3V11.7ZM4.31146 17.3L0.578125 20.1L4.31146 22.9V17.3ZM4.31146 22.9L0.578125 25.7L4.31146 28.5V22.9ZM4.31146 0.5H6.17813V4.23333H4.31146V0.5ZM4.31146 24.7667H6.17813V28.5H4.31146V24.7667ZM4.31146 9.83333H6.17813V13.5667H4.31146V9.83333ZM4.31146 6.1H6.17813V7.96667H4.31146V6.1ZM4.31146 21.0333H6.17813V22.9H4.31146V21.0333ZM4.31146 15.4333H6.17813V19.1667H4.31146V15.4333Z" fill="white"/>
<path fill-rule="evenodd" clip-rule="evenodd" d="M9.91138 19.7972H39.778V28.5H9.91138V19.7972Z" fill="#249F58"/>
</g>
<defs>
<clipPath id="clip0_3506_6558">
<rect y="0.5" width="28" height="28" rx="14" fill="white"/>
</clipPath>
</defs>
</svg>
